<?xml version="1.0" encoding="utf-8"?>
<!-- Generator: Adobe Illustrator 24.1.2, SVG Export Plug-In . SVG Version: 6.00 Build 0)  -->
<svg version="1.1" id="Слой_1" xmlns="http://www.w3.org/2000/svg" xmlns:xlink="http://www.w3.org/1999/xlink" x="0px" y="0px"
	 viewBox="0 0 1992.1 441.3" style="enable-background:new 0 0 1992.1 441.3;" xml:space="preserve">
<style type="text/css">
	.st0{fill:#C60006;}
	.st1{fill:#FFFFFF;}
	.st2{font-family:'TwCenMT-Regular';}
	.st3{font-size:511.3459px;}
</style>
<g transform="translate(0.000000,1024.000000) scale(0.100000,-0.100000)">
	<path class="st0" d="M13128.7,9854.4c-15.5,0.9-25-7.7-146.7-129.5c-111.3-111.3-130.4-132.2-129.5-143.1
		c0.9-10,98.9-108.9,481.8-487.3l480.4-474.1l177.4-58.4c97.6-32.2,184.3-58.9,193.8-59.3c11.8,0,19.5,4.1,25,13.2
		c8.2,14.5-16.3,92.6-94.7,301.9l-25.8,69.4l-472.7,483.6C13174.1,9823.6,13144.2,9853.5,13128.7,9854.4z"/>
	<path class="st0" d="M15728,9565.6c-246.9,146.9-456.5,218.5-717.6,245.2c-212,21.2-438.5,11.5-636.9-28.1
		c-169.4-34.2-312.9-85.1-471.4-169.2c-133.5-70-191.2-109.5-187.1-126.3c0.9-3.6,47.2-54.4,102.5-113.4l101.6-107.1l17.7,4.1
		c10,1.8,34,13.2,52.7,24.5c53.6,31.8,170.3,87.7,241.2,115c152.6,59.1,265.2,75.5,517.1,76.2c390.9-0.2,555.2-40.1,801.2-193.3
		c39.5-24.9,75.8-44.9,81.2-44.9c12.7,0,206.7,198.6,212.2,216.7C15849.7,9488.5,15831.5,9503.9,15728,9565.6z"/>
	<path class="st0" d="M13212.1,8974.2c-8.2-8.2-40-58.2-72.2-111.3c-71.8-120.8-105.4-193.5-149.6-322.9
		c-152.4-442.8-124.2-1070.6,65.3-1440.9c43.5-85.3,111.1-193.8,137-219.6c31.7-31.7,36.8-28.6,155.8,90.4
		c92.2,92.2,102.2,104.1,101.3,117.7c-0.4,7.7-15.8,36.8-34.5,63.5c-103.4,147.9-150.1,285.4-189.9,554.2
		c-57.4,392.7-11.8,666.9,164.5,982.1c23.6,40.9,42.3,81.3,42.3,89.4c0.5,12.3-13.6,29.9-87.6,109.4
		C13245.3,8992.8,13235.8,8998.7,13212.1,8974.2z"/>
	<path class="st0" d="M14779.6,9442c-66.3,0-123.5-2.8-127.1-6.4s-7.7-12.3-9.5-17.7c-1.4-5.9,24-90.3,56.6-187.5
		c50.8-150.7,61.2-176.6,73.9-180.2c30-9.1,35.4,1.8,96.3,185.3C14944.8,9458.4,14951.2,9442.1,14779.6,9442z"/>
	<path class="st0" d="M13310.1,8068.6c-22.2-2.3-23.2-3.2-27.3-37.2c-6.4-59-7.4-232.4-1.5-244.7c4.6-8.2,12.7-12.7,23.6-13.6
		c20.4-1.3,329.7,118.3,344.7,133.3c12.7,12.7,13.6,29.1,2.3,40.4C13638.7,7959.9,13329.6,8070,13310.1,8068.6z"/>
	<path class="st0" d="M14192.1,7358.3c-5.9-0.5-84.5-22.7-174.8-49.6l-164.4-49.1l-38.1-34.5c-20.4-19.5-243.5-239.9-495.6-490.2
		l-457.9-455.2l0.4-20.4c-0.5-20.4,0.9-21.8,121.6-142.4c112.5-112.5,123-122,137.5-121.1c15,0.5,56.8,41.4,510.1,494.7l494.3,494.3
		l45.5,147.1c60.5,195.7,61,198.9,45.1,214.8C14208.5,7353.7,14198.1,7358.7,14192.1,7358.3z"/>
	<path class="st0" d="M16475.5,9854.8c-13.2,2.3-36.8-20.4-379.3-354.8c-200.8-196.3-423.4-415.2-494.7-486.6L15472,8884
		l-62.3-178.5c-64.1-184.8-70.1-214.3-42.8-222.5c7.2-1.8,93.1,21.4,192,52.3l178,56.4l497,494.2c458.8,457,496.5,495.6,495.6,508.3
		C16727.7,9614.4,16495.9,9851.7,16475.5,9854.8z"/>
	<path class="st0" d="M15607.1,6561.1c-12.7-8.2-73.6-40-134.9-71.4c-125.4-63.6-273.4-118.2-382.3-140.1
		c-193.9-39.6-408.2-33.4-617.4,16.9c-142.5,34.4-347.7,111.4-480.7,179.9c-27.2,13.6-54,24.9-60.8,25.4
		c-19.1,0.9-208.9-182.6-211.7-204.4c-2.3-13.2,2.3-18.6,31.7-43.6c48.5-41.3,153.8-106.6,247.3-153.8
		c177-89.8,361.8-131,638.7-143.5c444-19.7,818.1,73.2,1145.1,284c60.4,38.6,69.9,50.9,59.5,74c-3.6,8.2-46.2,54.4-94.8,103
		C15648,6586.5,15648.5,6586.1,15607.1,6561.1z"/>
	<path class="st0" d="M16345.5,8979c-17.3-1.8-27.7-10.5-113.6-96.3c-85.4-85.4-93.6-95.4-93.6-109.9c0.9-9.1,16.3-47.2,35.4-85.3
		c266.6-538.2,271.3-1009.9,15.3-1519c-33.2-65.9-47.3-100.8-44.5-110.8c1.8-10,33.6-47.2,96.2-114.3l92.6-98.9l19.5,4.1
		c19.5,4.1,21.3,5.9,68.2,99c183.2,361.9,272.4,687,273.5,1000.3c1.1,249.7-46,459.4-161.6,718.5c-43.1,96.7-112,229.2-147.3,282.7
		C16365.5,8979.9,16364.1,8981.3,16345.5,8979z"/>
	<path class="st0" d="M16269.6,8067.4c-19.5,0.4-334.2-107.4-343.7-116.9c-2.7-2.7-6.8-11.3-8.2-18.2c-2.3-6.8,1.3-17.7,7.7-24
		c12.2-12.2,319.5-134.2,342.2-135.1c32.2-2.3,36.3,15.5,35.1,142.1C16301.3,8050.1,16297.3,8067.8,16269.6,8067.4z"/>
	<path class="st0" d="M14791.5,6792.5c-15.9,0.5-32.2-14.1-35.9-31.4c-1.4-5.9-26.8-78.5-56.9-161.2c-30-82.6-53.7-156.2-52.3-163
		c0.5-6.8,5-16.8,9.1-20.9c9.1-9.1,246.5-19.4,263.8-12.1c21.8,10,15.9,43.1-27.2,163.4c-24,65.8-50.7,141.6-60.3,168.4
		C14812.4,6790.7,14811,6793,14791.5,6792.5z"/>
	<path class="st0" d="M16251,6748.6l-481.4,478.6l-188.8,65.3c-103.5,36.2-194.7,64.8-201.5,64.3c-14.5-1.8-21.3-7.7-24.5-20.9
		c-0.9-5.4,7.2-37.2,18.1-70.8c10.9-33.6,37.6-117.6,58.9-186.1l39.4-124.8l968.1-968.1l22.2,0.5l22.2-0.5l122.2,122.2
		c114,114,122.6,123.6,124.5,141.7l2.3,19.5L16251,6748.6z"/>
</g>
<text transform="matrix(1 0 0 1 0 397.5218)" class="st1 st2 st3">QickS</text>
<text transform="matrix(1 0 0 1 1667.7402 397.5222)" class="st1 st2 st3">ft</text>
</svg>
