<?xml version="1.0" encoding="utf-8"?>
<!-- Generator: Adobe Illustrator 24.1.2, SVG Export Plug-In . SVG Version: 6.00 Build 0)  -->
<svg version="1.1" id="Слой_1" xmlns="http://www.w3.org/2000/svg" xmlns:xlink="http://www.w3.org/1999/xlink" x="0px" y="0px"
	 viewBox="0 0 5036.2 4996.2" style="enable-background:new 0 0 5036.2 4996.2;" xml:space="preserve">
<style type="text/css">
	.st0{fill:#C60006;}
	.st1{font-family:'SegoePrint';}
	.st2{font-size:511.3459px;}
	.st3{font-family:'MyriadPro-Regular';}
	.st4{font-family:'TwCenMT-Regular';}
	.st5{font-family:'MVBoli';}
	.st6{font-family:'CenturyGothic';}
	.st7{font-family:'Calibri';}
	.st8{font-family:'BaskOldFace';}
</style>
<g transform="translate(0.000000,1024.000000) scale(0.100000,-0.100000)">
	<path class="st0" d="M19678.5-14601.9c-15.5,0.9-25-7.7-146.7-129.5c-111.3-111.3-130.4-132.2-129.5-143.1
		c0.9-10,98.9-108.9,481.8-487.3l480.4-474.1l177.4-58.4c97.6-32.2,184.3-58.9,193.8-59.3c11.8,0,19.5,4.1,25,13.2
		c8.2,14.5-16.3,92.6-94.7,301.9l-25.8,69.4l-472.7,483.6C19723.9-14632.7,19693.9-14602.8,19678.5-14601.9z"/>
	<path class="st0" d="M22277.8-14890.7c-246.8,146.9-456.5,218.5-717.6,245.2c-212,21.2-438.5,11.5-636.9-28.1
		c-169.4-34.2-312.9-85.1-471.4-169.2c-133.5-70-191.2-109.5-187.1-126.3c0.9-3.6,47.2-54.4,102.5-113.4l101.6-107.1l17.7,4.1
		c10,1.8,34,13.2,52.7,24.5c53.6,31.8,170.3,87.7,241.2,115c152.6,59.1,265.2,75.5,517.1,76.2c390.9-0.2,555.2-40.1,801.2-193.3
		c39.5-24.9,75.8-44.9,81.2-44.9c12.7,0,206.7,198.6,212.2,216.7C22399.4-14967.8,22381.3-14952.4,22277.8-14890.7z"/>
	<path class="st0" d="M19761.9-15482.1c-8.2-8.2-40-58.2-72.2-111.3c-71.8-120.8-105.4-193.5-149.6-322.9
		c-152.4-442.8-124.2-1070.6,65.3-1440.9c43.5-85.3,111.1-193.8,137-219.6c31.8-31.8,36.8-28.6,155.8,90.4
		c92.2,92.2,102.2,104.1,101.3,117.7c-0.4,7.7-15.8,36.8-34.5,63.5c-103.4,147.9-150.1,285.4-189.9,554.2
		c-57.4,392.7-11.8,666.9,164.5,982.1c23.6,40.9,42.3,81.3,42.3,89.4c0.5,12.3-13.6,29.9-87.6,109.4
		C19795.1-15463.5,19785.5-15457.6,19761.9-15482.1z"/>
	<path class="st0" d="M21329.4-15014.4c-66.3,0-123.5-2.8-127.1-6.4c-3.6-3.6-7.7-12.3-9.5-17.7c-1.4-5.9,24-90.3,56.6-187.5
		c50.8-150.7,61.2-176.6,73.9-180.2c30-9.1,35.4,1.8,96.3,185.3C21494.6-14997.9,21501-15014.2,21329.4-15014.4z"/>
	<path class="st0" d="M19859.8-16387.7c-22.2-2.3-23.2-3.2-27.3-37.2c-6.4-59-7.4-232.4-1.5-244.7c4.6-8.2,12.7-12.7,23.6-13.6
		c20.4-1.3,329.7,118.3,344.7,133.3c12.7,12.7,13.6,29.1,2.3,40.4C20188.5-16496.4,19879.3-16386.3,19859.8-16387.7z"/>
	<path class="st0" d="M20741.9-17098.1c-5.9-0.5-84.5-22.7-174.8-49.6l-164.4-49.1l-38.1-34.5c-20.4-19.5-243.5-239.9-495.6-490.2
		l-457.9-455.2l0.4-20.4c-0.5-20.4,0.9-21.8,121.6-142.4c112.5-112.5,123-122,137.5-121.1c15,0.5,56.8,41.4,510.1,494.7l494.3,494.3
		l45.5,147.1c60.5,195.7,61,198.9,45.1,214.8C20758.2-17102.6,20747.8-17097.6,20741.9-17098.1z"/>
	<path class="st0" d="M23025.3-14601.5c-13.2,2.3-36.8-20.4-379.3-354.8c-200.8-196.3-423.4-415.2-494.7-486.6l-129.5-129.5
		l-62.3-178.5c-64.1-184.8-70.1-214.3-42.8-222.5c7.2-1.8,93.1,21.4,192.1,52.3l178,56.4l497,494.2
		c458.8,457,496.5,495.6,495.6,508.3C23277.5-14841.9,23045.7-14604.7,23025.3-14601.5z"/>
	<path class="st0" d="M22156.9-17895.2c-12.7-8.2-73.6-40-134.9-71.4c-125.4-63.6-273.4-118.2-382.3-140.1
		c-193.9-39.6-408.2-33.4-617.4,16.9c-142.5,34.4-347.7,111.4-480.7,179.9c-27.2,13.6-54,24.9-60.8,25.4
		c-19.1,0.9-208.9-182.6-211.7-204.4c-2.3-13.2,2.3-18.6,31.8-43.6c48.5-41.3,153.8-106.6,247.3-153.8
		c177-89.8,361.8-131,638.7-143.5c444-19.7,818.1,73.2,1145.1,284c60.4,38.6,69.9,50.9,59.5,74c-3.6,8.2-46.2,54.4-94.8,103
		C22197.8-17869.8,22198.2-17870.3,22156.9-17895.2z"/>
	<path class="st0" d="M22895.3-15477.3c-17.3-1.8-27.7-10.5-113.6-96.3c-85.4-85.4-93.6-95.4-93.6-109.9
		c0.9-9.1,16.3-47.2,35.4-85.3c266.6-538.2,271.3-1009.9,15.3-1519c-33.2-65.9-47.3-100.8-44.5-110.8c1.8-10,33.6-47.2,96.2-114.3
		l92.6-98.9l19.5,4.1c19.5,4.1,21.3,5.9,68.2,99c183.2,361.9,272.4,687,273.5,1000.3c1.1,249.7-46,459.4-161.6,718.5
		c-43.1,96.7-112,229.2-147.3,282.7C22915.3-15476.4,22913.9-15475,22895.3-15477.3z"/>
	<path class="st0" d="M22819.3-16389c-19.5,0.4-334.2-107.4-343.7-116.9c-2.7-2.7-6.8-11.3-8.2-18.2c-2.3-6.8,1.3-17.7,7.7-24
		c12.2-12.2,319.5-134.2,342.2-135.1c32.2-2.3,36.3,15.5,35.1,142.1C22851.1-16406.2,22847-16388.5,22819.3-16389z"/>
	<path class="st0" d="M21341.2-17663.8c-15.9,0.5-32.2-14.1-35.9-31.4c-1.4-5.9-26.8-78.5-56.9-161.2c-30-82.6-53.7-156.2-52.3-163
		c0.5-6.8,5-16.8,9.1-20.9c9.1-9.1,246.5-19.4,263.8-12.1c21.8,10,15.9,43.1-27.2,163.4c-24,65.8-50.7,141.6-60.3,168.4
		C21362.1-17665.6,21360.8-17663.3,21341.2-17663.8z"/>
	<path class="st0" d="M22800.8-17707.8l-481.4,478.6l-188.8,65.3c-103.5,36.2-194.7,64.8-201.5,64.3c-14.5-1.8-21.3-7.7-24.5-20.9
		c-0.9-5.4,7.2-37.2,18.1-70.8c10.9-33.6,37.6-117.6,58.9-186.1l39.4-124.8l968.1-968.1l22.2,0.5l22.2-0.5l122.2,122.2
		c114,114,122.6,123.6,124.5,141.7l2.3,19.5L22800.8-17707.8z"/>
</g>
<text transform="matrix(1 0 0 1 455.5436 2835.6594)" class="st1 st2">QickS</text>
<text transform="matrix(1 0 0 1 2372.8054 2835.6597)" class="st1 st2">ft</text>
<g transform="translate(0.000000,1024.000000) scale(0.100000,-0.100000)">
	<path class="st0" d="M16766.2-6372.2c-15.5,0.9-25-7.7-146.7-129.5c-111.3-111.3-130.4-132.2-129.5-143.1
		c0.9-10,98.9-108.9,481.8-487.3l480.4-474.1l177.4-58.4c97.6-32.2,184.3-58.9,193.8-59.3c11.8,0,19.5,4.1,25,13.2
		c8.2,14.5-16.3,92.6-94.7,301.9l-25.8,69.4l-472.7,483.6C16811.6-6403,16781.6-6373.1,16766.2-6372.2z"/>
	<path class="st0" d="M19365.5-6661c-246.9,146.9-456.5,218.5-717.6,245.2c-212,21.2-438.5,11.5-636.9-28.1
		c-169.4-34.2-312.9-85.1-471.4-169.2c-133.5-70-191.2-109.5-187.1-126.3c0.9-3.6,47.2-54.4,102.5-113.4l101.6-107.1l17.7,4.1
		c10,1.8,34,13.2,52.7,24.5c53.6,31.8,170.3,87.7,241.2,115c152.6,59.1,265.2,75.5,517.1,76.2c390.9-0.2,555.2-40.1,801.2-193.3
		c39.5-24.9,75.8-44.9,81.2-44.9c12.7,0,206.7,198.6,212.2,216.7C19487.1-6738.1,19468.9-6722.7,19365.5-6661z"/>
	<path class="st0" d="M16849.6-7252.4c-8.2-8.2-40-58.2-72.2-111.3c-71.8-120.8-105.4-193.5-149.6-322.9
		c-152.4-442.8-124.2-1070.6,65.3-1440.9c43.5-85.3,111.1-193.8,137-219.6c31.8-31.7,36.8-28.6,155.8,90.4
		c92.2,92.2,102.2,104.1,101.3,117.7c-0.4,7.7-15.8,36.8-34.5,63.5c-103.4,147.9-150.1,285.4-189.9,554.2
		c-57.4,392.7-11.8,666.9,164.5,982.1c23.6,40.9,42.3,81.3,42.3,89.4c0.5,12.3-13.6,29.9-87.6,109.4
		C16882.7-7233.8,16873.2-7227.9,16849.6-7252.4z"/>
	<path class="st0" d="M18417.1-6784.6c-66.3,0-123.5-2.8-127.1-6.4c-3.6-3.6-7.7-12.3-9.5-17.7c-1.4-5.9,24-90.3,56.6-187.5
		c50.8-150.7,61.2-176.6,73.9-180.2c30-9.1,35.4,1.8,96.3,185.3C18582.3-6768.2,18588.6-6784.5,18417.1-6784.6z"/>
	<path class="st0" d="M16947.5-8158c-22.2-2.3-23.2-3.2-27.3-37.2c-6.4-59-7.4-232.4-1.5-244.7c4.6-8.2,12.7-12.7,23.6-13.6
		c20.4-1.3,329.7,118.3,344.7,133.3c12.7,12.7,13.6,29.1,2.3,40.4C17276.1-8266.7,16967-8156.6,16947.5-8158z"/>
	<path class="st0" d="M17829.6-8868.3c-5.9-0.5-84.5-22.7-174.8-49.6l-164.4-49.1l-38.1-34.5c-20.4-19.5-243.5-239.9-495.6-490.2
		l-457.9-455.2l0.4-20.4c-0.5-20.4,0.9-21.8,121.6-142.4c112.5-112.5,123-122,137.5-121.1c15,0.5,56.8,41.4,510.1,494.7l494.3,494.3
		l45.5,147.1c60.5,195.7,61,198.9,45.1,214.8C17845.9-8872.9,17835.5-8867.9,17829.6-8868.3z"/>
	<path class="st0" d="M20112.9-6371.8c-13.2,2.3-36.8-20.4-379.3-354.8c-200.8-196.3-423.4-415.2-494.7-486.6l-129.5-129.5
		l-62.3-178.5c-64.1-184.8-70.1-214.3-42.8-222.5c7.2-1.8,93.1,21.4,192.1,52.3l178,56.4l497,494.2
		c458.8,457,496.5,495.6,495.6,508.3C20365.2-6612.2,20133.3-6374.9,20112.9-6371.8z"/>
	<path class="st0" d="M19244.6-9665.5c-12.7-8.2-73.6-40-134.9-71.4c-125.4-63.6-273.4-118.2-382.3-140.1
		c-193.9-39.6-408.2-33.4-617.4,16.9c-142.5,34.4-347.7,111.4-480.7,179.9c-27.2,13.6-54,24.9-60.8,25.4
		c-19.1,0.9-208.9-182.6-211.7-204.4c-2.3-13.2,2.3-18.6,31.7-43.6c48.5-41.3,153.8-106.6,247.3-153.8
		c177-89.8,361.8-131,638.7-143.5c444-19.7,818.1,73.2,1145.1,284c60.4,38.6,69.9,50.9,59.5,74c-3.6,8.2-46.2,54.4-94.8,103
		C19285.5-9640.1,19285.9-9640.5,19244.6-9665.5z"/>
	<path class="st0" d="M19982.9-7247.6c-17.3-1.8-27.7-10.5-113.6-96.3c-85.4-85.4-93.6-95.4-93.6-109.9c0.9-9.1,16.3-47.2,35.4-85.3
		c266.6-538.2,271.3-1009.9,15.3-1519c-33.2-65.9-47.3-100.8-44.5-110.8c1.8-10,33.6-47.2,96.2-114.3l92.6-98.9l19.5,4.1
		c19.5,4.1,21.3,5.9,68.2,99c183.2,361.9,272.4,687,273.5,1000.3c1.1,249.7-46,459.4-161.6,718.5c-43.1,96.7-112,229.2-147.3,282.7
		C20003-7246.7,20001.6-7245.3,19982.9-7247.6z"/>
	<path class="st0" d="M19907-8159.3c-19.5,0.4-334.2-107.4-343.7-116.9c-2.7-2.7-6.8-11.3-8.2-18.2c-2.3-6.8,1.3-17.7,7.7-24
		c12.2-12.2,319.5-134.2,342.2-135.1c32.2-2.3,36.3,15.5,35.1,142.1C19938.8-8176.5,19934.7-8158.8,19907-8159.3z"/>
	<path class="st0" d="M18428.9-9434.1c-15.9,0.5-32.2-14.1-35.9-31.4c-1.4-5.9-26.8-78.5-56.9-161.2c-30-82.6-53.7-156.2-52.3-163
		c0.5-6.8,5-16.8,9.1-20.9c9.1-9.1,246.5-19.4,263.8-12.1c21.8,10,15.9,43.1-27.2,163.4c-24,65.8-50.7,141.6-60.3,168.4
		C18449.8-9435.9,18448.4-9433.6,18428.9-9434.1z"/>
	<path class="st0" d="M19888.4-9478.1l-481.4,478.6l-188.8,65.3c-103.5,36.2-194.7,64.8-201.5,64.3c-14.5-1.8-21.3-7.7-24.5-20.9
		c-0.9-5.4,7.2-37.2,18.1-70.8c10.9-33.6,37.6-117.6,58.9-186.1l39.4-124.8l968.1-968.1l22.2,0.5l22.2-0.5l122.2,122.2
		c114,114,122.6,123.6,124.5,141.7l2.3,19.5L19888.4-9478.1z"/>
</g>
<text transform="matrix(1 0 0 1 420.3261 2020.5159)" class="st3 st2">QickS</text>
<text transform="matrix(1 0 0 1 2088.0664 2020.5162)" class="st3 st2">ft</text>
<g transform="translate(0.000000,1024.000000) scale(0.100000,-0.100000)">
	<path class="st0" d="M17659.5-22203.1c-15.5,0.9-25-7.7-146.7-129.5c-111.3-111.3-130.4-132.2-129.5-143.1
		c0.9-10,98.9-108.9,481.8-487.3l480.4-474.1l177.4-58.4c97.6-32.2,184.3-58.9,193.8-59.3c11.8,0,19.5,4.1,25,13.2
		c8.2,14.5-16.3,92.6-94.7,301.9l-25.8,69.4l-472.7,483.6C17704.9-22233.9,17674.9-22203.9,17659.5-22203.1z"/>
	<path class="st0" d="M20258.8-22491.9c-246.8,146.9-456.5,218.5-717.6,245.2c-212,21.2-438.5,11.5-636.9-28.1
		c-169.4-34.2-312.9-85.1-471.4-169.2c-133.5-70-191.2-109.5-187.1-126.3c0.9-3.6,47.2-54.4,102.5-113.4l101.6-107.1l17.7,4.1
		c10,1.8,34,13.2,52.7,24.5c53.6,31.8,170.3,87.7,241.2,115c152.6,59.1,265.2,75.5,517.1,76.2c390.9-0.2,555.2-40.1,801.2-193.3
		c39.5-24.9,75.8-44.9,81.2-44.9c12.7,0,206.7,198.6,212.2,216.7C20380.4-22569,20362.2-22553.6,20258.8-22491.9z"/>
	<path class="st0" d="M17742.9-23083.2c-8.2-8.2-40-58.2-72.2-111.3c-71.8-120.8-105.4-193.5-149.6-322.9
		c-152.4-442.8-124.2-1070.6,65.3-1440.9c43.5-85.3,111.1-193.8,137-219.6c31.7-31.7,36.8-28.6,155.8,90.4
		c92.2,92.2,102.2,104.1,101.3,117.7c-0.4,7.7-15.8,36.8-34.5,63.5c-103.4,147.9-150.1,285.4-189.9,554.2
		c-57.4,392.7-11.8,666.9,164.5,982.1c23.6,40.9,42.3,81.3,42.3,89.4c0.5,12.3-13.6,29.9-87.6,109.4
		C17776-23064.6,17766.5-23058.7,17742.9-23083.2z"/>
	<path class="st0" d="M19310.3-22615.5c-66.3,0-123.5-2.8-127.1-6.4c-3.6-3.6-7.7-12.3-9.5-17.7c-1.4-5.9,24-90.3,56.6-187.5
		c50.8-150.7,61.2-176.6,73.9-180.2c30-9.1,35.4,1.8,96.3,185.3C19475.6-22599.1,19481.9-22615.4,19310.3-22615.5z"/>
	<path class="st0" d="M17840.8-23988.9c-22.2-2.3-23.2-3.2-27.3-37.2c-6.4-59-7.4-232.4-1.5-244.7c4.6-8.2,12.7-12.7,23.6-13.6
		c20.4-1.3,329.7,118.3,344.7,133.3c12.7,12.7,13.6,29.1,2.3,40.4C18169.4-24097.6,17860.3-23987.5,17840.8-23988.9z"/>
	<path class="st0" d="M18722.9-24699.2c-5.9-0.5-84.5-22.7-174.8-49.6l-164.4-49.1l-38.1-34.5c-20.4-19.5-243.5-239.9-495.6-490.2
		l-457.9-455.2l0.4-20.4c-0.5-20.4,0.9-21.8,121.6-142.4c112.5-112.5,123-122,137.5-121.1c15,0.5,56.8,41.4,510.1,494.7l494.3,494.3
		l45.5,147.1c60.5,195.7,61,198.9,45.1,214.8C18739.2-24703.7,18728.8-24698.8,18722.9-24699.2z"/>
	<path class="st0" d="M21006.2-22202.7c-13.2,2.3-36.8-20.4-379.3-354.8c-200.8-196.3-423.4-415.2-494.7-486.6l-129.5-129.5
		l-62.3-178.5c-64.1-184.8-70.1-214.3-42.8-222.5c7.2-1.8,93.1,21.4,192.1,52.3l178,56.4l497,494.2
		c458.8,457,496.5,495.6,495.6,508.3C21258.5-22443.1,21026.6-22205.8,21006.2-22202.7z"/>
	<path class="st0" d="M20137.9-25496.4c-12.7-8.2-73.6-40-134.9-71.4c-125.4-63.6-273.4-118.2-382.3-140.1
		c-193.9-39.6-408.2-33.4-617.4,16.9c-142.5,34.4-347.7,111.4-480.7,179.9c-27.2,13.6-54,24.9-60.8,25.4
		c-19.1,0.9-209-182.6-211.7-204.4c-2.3-13.2,2.3-18.6,31.8-43.6c48.5-41.3,153.8-106.6,247.3-153.8c177-89.8,361.8-131,638.7-143.5
		c444-19.7,818.1,73.2,1145.1,284c60.4,38.6,69.9,50.9,59.5,74c-3.6,8.2-46.2,54.4-94.8,103
		C20178.7-25471,20179.2-25471.4,20137.9-25496.4z"/>
	<path class="st0" d="M20876.2-23078.5c-17.3-1.8-27.7-10.5-113.6-96.3c-85.4-85.4-93.6-95.4-93.6-109.9
		c0.9-9.1,16.3-47.2,35.4-85.3c266.6-538.3,271.3-1009.9,15.3-1519c-33.2-65.9-47.3-100.8-44.5-110.8c1.8-10,33.6-47.2,96.2-114.3
		l92.6-98.9l19.5,4.1c19.5,4.1,21.3,5.9,68.2,99c183.2,361.9,272.4,687,273.5,1000.3c1.1,249.7-46,459.4-161.6,718.5
		c-43.1,96.7-112,229.2-147.3,282.7C20896.3-23077.5,20894.9-23076.2,20876.2-23078.5z"/>
	<path class="st0" d="M20800.3-23990.1c-19.5,0.4-334.2-107.4-343.7-116.9c-2.7-2.7-6.8-11.3-8.2-18.2c-2.3-6.8,1.3-17.7,7.7-24
		c12.2-12.2,319.5-134.2,342.2-135.1c32.2-2.3,36.3,15.5,35.1,142.1C20832.1-24007.4,20828-23989.6,20800.3-23990.1z"/>
	<path class="st0" d="M19322.2-25264.9c-15.9,0.5-32.2-14.1-35.9-31.4c-1.4-5.9-26.8-78.5-56.9-161.2c-30-82.6-53.7-156.2-52.3-163
		c0.5-6.8,5-16.8,9.1-20.9c9.1-9.1,246.5-19.4,263.8-12.1c21.8,10,15.9,43.1-27.2,163.4c-24,65.8-50.7,141.6-60.3,168.4
		C19343.1-25266.7,19341.7-25264.5,19322.2-25264.9z"/>
	<path class="st0" d="M20781.7-25308.9l-481.4,478.6l-188.8,65.3c-103.5,36.2-194.7,64.8-201.5,64.3c-14.5-1.8-21.3-7.7-24.5-20.9
		c-0.9-5.4,7.2-37.2,18.1-70.8c10.9-33.6,37.6-117.6,58.9-186.1l39.4-124.8l968.1-968.1l22.2,0.5l22.2-0.5l122.2,122.2
		c114,114,122.6,123.6,124.5,141.7l2.3,19.5L20781.7-25308.9z"/>
</g>
<text transform="matrix(1 0 0 1 510.0738 3603.2703)" class="st4 st2">QickS</text>
<text transform="matrix(1 0 0 1 2177.814 3603.2708)" class="st4 st2">ft</text>
<g transform="translate(0.000000,1024.000000) scale(0.100000,-0.100000)">
	<path class="st0" d="M16428.5-48.4c-15.5,0.9-25-7.7-146.7-129.5c-111.3-111.3-130.4-132.2-129.5-143.1
		c0.9-10,98.9-108.9,481.8-487.3l480.4-474.1l177.4-58.4c97.6-32.2,184.3-58.9,193.8-59.3c11.8,0,19.5,4.1,25,13.2
		c8.2,14.5-16.3,92.6-94.7,301.9l-25.8,69.4L16917.6-532C16473.9-79.2,16444-49.3,16428.5-48.4z"/>
	<path class="st0" d="M19027.8-337.2c-246.9,146.9-456.5,218.5-717.6,245.2c-212,21.2-438.5,11.5-636.9-28.1
		c-169.4-34.2-312.9-85.1-471.4-169.2c-133.5-70-191.2-109.5-187.1-126.3c0.9-3.6,47.2-54.4,102.5-113.4l101.6-107.1l17.7,4.1
		c10,1.8,34,13.2,52.7,24.5c53.6,31.8,170.3,87.7,241.2,115c152.6,59.1,265.2,75.5,517.1,76.2c390.9-0.2,555.2-40.1,801.2-193.3
		c39.5-24.9,75.8-44.9,81.2-44.9c12.7,0,206.7,198.6,212.2,216.7C19149.5-414.3,19131.3-398.9,19027.8-337.2z"/>
	<path class="st0" d="M16511.9-928.6c-8.2-8.2-40-58.2-72.2-111.3c-71.8-120.8-105.4-193.5-149.6-322.9
		c-152.4-442.8-124.2-1070.6,65.3-1440.9c43.5-85.3,111.1-193.8,137-219.6c31.8-31.7,36.8-28.6,155.8,90.4
		c92.2,92.2,102.2,104.1,101.3,117.7c-0.4,7.7-15.8,36.8-34.5,63.5c-103.4,147.9-150.1,285.4-189.9,554.2
		c-57.4,392.7-11.8,666.9,164.5,982.1c23.6,40.9,42.2,81.3,42.3,89.4c0.5,12.3-13.6,29.9-87.6,109.4
		C16545.1-910,16535.6-904.1,16511.9-928.6z"/>
	<path class="st0" d="M18079.4-460.9c-66.3,0-123.5-2.8-127.1-6.4c-3.6-3.6-7.7-12.3-9.5-17.7c-1.4-5.9,24-90.3,56.6-187.5
		c50.8-150.7,61.2-176.6,73.9-180.2c30-9.1,35.4,1.8,96.3,185.3C18244.6-444.4,18251-460.8,18079.4-460.9z"/>
	<path class="st0" d="M16609.9-1834.2c-22.2-2.3-23.2-3.2-27.3-37.2c-6.4-59-7.4-232.4-1.5-244.7c4.6-8.2,12.7-12.7,23.6-13.6
		c20.4-1.3,329.7,118.3,344.7,133.3c12.7,12.7,13.6,29.1,2.3,40.4C16938.5-1943,16629.4-1832.8,16609.9-1834.2z"/>
	<path class="st0" d="M17491.9-2544.6c-5.9-0.5-84.5-22.7-174.8-49.6l-164.4-49.1l-38.1-34.5c-20.4-19.5-243.5-239.9-495.6-490.2
		l-457.9-455.2l0.4-20.4c-0.5-20.4,0.9-21.8,121.6-142.4c112.5-112.5,123-122,137.5-121.1c15,0.5,56.8,41.4,510.1,494.7l494.3,494.3
		l45.5,147.1c60.5,195.7,61,198.9,45.1,214.8C17508.3-2549.1,17497.8-2544.1,17491.9-2544.6z"/>
	<path class="st0" d="M19775.3-48c-13.2,2.3-36.8-20.4-379.3-354.8c-200.8-196.3-423.4-415.2-494.7-486.6l-129.5-129.5l-62.3-178.5
		c-64.1-184.8-70.1-214.3-42.8-222.5c7.2-1.8,93.1,21.4,192.1,52.3l178,56.4l497,494.2c458.8,457,496.5,495.6,495.6,508.3
		C20027.5-288.4,19795.7-51.2,19775.3-48z"/>
	<path class="st0" d="M18906.9-3341.8c-12.7-8.2-73.6-40-134.9-71.4c-125.4-63.6-273.4-118.2-382.3-140.1
		c-193.9-39.6-408.2-33.4-617.4,16.9c-142.5,34.4-347.7,111.4-480.7,179.9c-27.2,13.6-54,24.9-60.8,25.4
		c-19.1,0.9-208.9-182.6-211.7-204.4c-2.3-13.2,2.3-18.6,31.7-43.6c48.5-41.3,153.8-106.6,247.3-153.8
		c177-89.8,361.8-131,638.7-143.5c444-19.7,818.1,73.2,1145.1,284c60.4,38.6,69.9,50.9,59.5,74c-3.6,8.2-46.2,54.4-94.8,103
		C18947.8-3316.3,18948.3-3316.8,18906.9-3341.8z"/>
	<path class="st0" d="M19645.3-923.8c-17.3-1.8-27.7-10.5-113.6-96.3c-85.4-85.4-93.6-95.4-93.6-109.9c0.9-9.1,16.3-47.2,35.4-85.3
		c266.6-538.2,271.3-1009.9,15.3-1519c-33.2-65.9-47.3-100.8-44.5-110.8c1.8-10,33.6-47.2,96.2-114.3l92.6-98.9l19.5,4.1
		c19.5,4.1,21.3,5.9,68.2,99c183.2,361.9,272.4,687,273.5,1000.3c1.1,249.7-46,459.4-161.6,718.5c-43.1,96.7-112,229.2-147.3,282.7
		C19665.3-922.9,19663.9-921.5,19645.3-923.8z"/>
	<path class="st0" d="M19569.4-1835.5c-19.5,0.4-334.2-107.4-343.7-116.9c-2.7-2.7-6.8-11.3-8.2-18.2c-2.3-6.8,1.3-17.7,7.7-24
		c12.2-12.2,319.5-134.2,342.2-135.1c32.2-2.3,36.3,15.5,35.1,142.1C19601.1-1852.7,19597.1-1835,19569.4-1835.5z"/>
	<path class="st0" d="M18091.3-3110.3c-15.9,0.5-32.2-14.1-35.9-31.4c-1.4-5.9-26.8-78.5-56.8-161.2c-30-82.6-53.7-156.2-52.3-163
		c0.5-6.8,5-16.8,9.1-20.9c9.1-9.1,246.5-19.4,263.8-12.1c21.8,10,15.9,43.1-27.2,163.4c-24,65.8-50.7,141.6-60.3,168.4
		C18112.1-3112.1,18110.8-3109.8,18091.3-3110.3z"/>
	<path class="st0" d="M19550.8-3154.3l-481.4,478.6l-188.8,65.3c-103.5,36.2-194.7,64.8-201.5,64.3c-14.5-1.8-21.3-7.7-24.5-20.9
		c-0.9-5.4,7.2-37.2,18.1-70.8c10.9-33.6,37.6-117.6,58.9-186.1l39.4-124.8l968.1-968.1l22.2,0.5l22.2-0.5l122.2,122.2
		c114,114,122.6,123.6,124.5,141.7l2.3,19.5L19550.8-3154.3z"/>
</g>
<text transform="matrix(1 0 0 1 273.1883 1365.5635)" class="st5 st2">QickS</text>
<text transform="matrix(1 0 0 1 2036.4502 1365.5638)" class="st5 st2">ft</text>
<g transform="translate(0.000000,1024.000000) scale(0.100000,-0.100000)">
	<path class="st0" d="M19013.1-27922.7c-15.4,0.9-25-7.7-146.7-129.5c-111.3-111.3-130.4-132.2-129.5-143.1
		c0.9-10,98.9-108.9,481.8-487.3l480.4-474.1l177.4-58.4c97.6-32.2,184.3-58.9,193.8-59.3c11.8,0,19.5,4.1,25,13.2
		c8.2,14.5-16.3,92.6-94.7,301.9l-25.8,69.4l-472.7,483.6C19058.5-27953.6,19028.5-27923.6,19013.1-27922.7z"/>
	<path class="st0" d="M21612.4-28211.5c-246.8,146.9-456.5,218.5-717.6,245.2c-212,21.2-438.5,11.5-636.9-28.1
		c-169.4-34.2-312.9-85.1-471.4-169.2c-133.5-70-191.2-109.5-187.1-126.3c0.9-3.6,47.2-54.4,102.5-113.4l101.6-107.1l17.7,4.1
		c10,1.8,34,13.2,52.7,24.5c53.6,31.8,170.3,87.7,241.2,115c152.6,59.1,265.2,75.5,517.1,76.2c390.9-0.2,555.2-40.1,801.2-193.3
		c39.5-24.9,75.8-44.9,81.2-44.9c12.7,0,206.7,198.6,212.2,216.7C21734-28288.7,21715.9-28273.2,21612.4-28211.5z"/>
	<path class="st0" d="M19096.5-28802.9c-8.2-8.2-40-58.2-72.2-111.3c-71.8-120.8-105.4-193.5-149.6-322.9
		c-152.4-442.8-124.2-1070.6,65.3-1440.9c43.5-85.3,111.1-193.8,137-219.6c31.7-31.8,36.8-28.6,155.8,90.4
		c92.2,92.2,102.2,104.1,101.3,117.7c-0.4,7.7-15.8,36.8-34.5,63.5c-103.4,147.9-150.1,285.4-189.9,554.2
		c-57.4,392.7-11.8,666.9,164.5,982.1c23.6,40.9,42.3,81.3,42.3,89.4c0.5,12.3-13.6,29.9-87.6,109.4
		C19129.7-28784.3,19120.1-28778.4,19096.5-28802.9z"/>
	<path class="st0" d="M20664-28335.2c-66.3,0-123.5-2.8-127.1-6.4c-3.6-3.6-7.7-12.3-9.5-17.7c-1.4-5.9,24-90.3,56.6-187.5
		c50.8-150.7,61.2-176.6,73.9-180.2c30-9.1,35.4,1.8,96.3,185.3C20829.2-28318.7,20835.5-28335.1,20664-28335.2z"/>
	<path class="st0" d="M19194.4-29708.6c-22.2-2.3-23.2-3.2-27.3-37.2c-6.4-59-7.4-232.4-1.5-244.7c4.6-8.2,12.7-12.7,23.6-13.6
		c20.4-1.3,329.7,118.3,344.7,133.3c12.7,12.7,13.6,29.1,2.3,40.4C19523.1-29817.3,19213.9-29707.2,19194.4-29708.6z"/>
	<path class="st0" d="M20076.5-30418.9c-5.9-0.5-84.5-22.7-174.8-49.6l-164.4-49.1l-38.1-34.5c-20.4-19.5-243.5-239.9-495.6-490.2
		l-457.9-455.2l0.4-20.4c-0.5-20.4,0.9-21.8,121.6-142.4c112.5-112.5,123-122,137.5-121.1c15,0.5,56.8,41.4,510.1,494.7l494.3,494.3
		l45.5,147.1c60.5,195.7,61,198.9,45.1,214.8C20092.8-30423.4,20082.4-30418.4,20076.5-30418.9z"/>
	<path class="st0" d="M22359.9-27922.3c-13.2,2.3-36.8-20.4-379.3-354.8c-200.8-196.3-423.4-415.2-494.7-486.6l-129.5-129.5
		l-62.3-178.5c-64.1-184.8-70.1-214.3-42.8-222.5c7.2-1.8,93.1,21.4,192.1,52.3l178,56.4l497,494.2
		c458.8,457,496.5,495.6,495.6,508.3C22612.1-28162.8,22380.3-27925.5,22359.9-27922.3z"/>
	<path class="st0" d="M21491.5-31216.1c-12.7-8.2-73.6-40-134.9-71.4c-125.4-63.6-273.4-118.2-382.3-140.1
		c-193.9-39.6-408.2-33.4-617.4,16.9c-142.5,34.4-347.7,111.4-480.7,179.9c-27.2,13.6-54,24.9-60.8,25.4
		c-19.1,0.9-209-182.6-211.7-204.4c-2.3-13.2,2.3-18.6,31.8-43.6c48.5-41.3,153.8-106.6,247.3-153.8c177-89.8,361.8-131,638.7-143.5
		c444-19.7,818.1,73.2,1145.1,284c60.4,38.6,69.9,50.9,59.5,74c-3.6,8.2-46.2,54.4-94.8,103
		C21532.4-31190.6,21532.8-31191.1,21491.5-31216.1z"/>
	<path class="st0" d="M22229.9-28798.1c-17.3-1.8-27.7-10.5-113.6-96.3c-85.4-85.4-93.6-95.4-93.6-109.9
		c0.9-9.1,16.3-47.2,35.4-85.3c266.6-538.2,271.3-1009.9,15.3-1519c-33.2-65.9-47.3-100.8-44.5-110.8c1.8-10,33.6-47.2,96.2-114.3
		l92.6-98.9l19.5,4.1c19.5,4.1,21.3,5.9,68.2,99c183.2,361.9,272.4,687,273.5,1000.3c1.1,249.7-46,459.4-161.6,718.5
		c-43.1,96.7-112,229.2-147.3,282.7C22249.9-28797.2,22248.5-28795.8,22229.9-28798.1z"/>
	<path class="st0" d="M22153.9-29709.8c-19.5,0.4-334.2-107.4-343.7-116.9c-2.7-2.7-6.8-11.3-8.2-18.2c-2.3-6.8,1.3-17.7,7.7-24
		c12.2-12.2,319.5-134.2,342.2-135.1c32.2-2.3,36.3,15.5,35.1,142.1C22185.7-29727,22181.6-29709.3,22153.9-29709.8z"/>
	<path class="st0" d="M20675.8-30984.6c-15.9,0.5-32.2-14.1-35.9-31.4c-1.4-5.9-26.8-78.5-56.9-161.2c-30-82.6-53.7-156.2-52.3-163
		c0.5-6.8,5-16.8,9.1-20.9c9.1-9.1,246.5-19.4,263.8-12.1c21.8,10,15.9,43.1-27.2,163.4c-24,65.8-50.7,141.6-60.3,168.4
		C20696.7-30986.4,20695.4-30984.2,20675.8-30984.6z"/>
	<path class="st0" d="M22135.4-31028.6L21654-30550l-188.8,65.3c-103.5,36.2-194.7,64.8-201.5,64.3c-14.5-1.8-21.3-7.7-24.5-20.9
		c-0.9-5.4,7.2-37.2,18.1-70.8s37.6-117.6,58.9-186.1l39.4-124.8l968.1-968.1l22.2,0.5l22.2-0.5l122.2,122.2
		c114,114,122.6,123.6,124.5,141.7l2.3,19.5L22135.4-31028.6z"/>
</g>
<text transform="matrix(1 0 0 1 474.0028 4167.7427)" class="st6 st2">QickS</text>
<text transform="matrix(1 0 0 1 2278.2646 4167.7432)" class="st6 st2">ft</text>
<g transform="translate(0.000000,1024.000000) scale(0.100000,-0.100000)">
	<path class="st0" d="M16703.1-32281.5c-15.4,0.9-25-7.7-146.7-129.5c-111.3-111.3-130.4-132.2-129.5-143.1
		c0.9-10,98.9-108.9,481.8-487.3l480.4-474.1l177.4-58.4c97.6-32.2,184.3-58.9,193.8-59.3c11.8,0,19.5,4.1,25,13.2
		c8.2,14.5-16.3,92.6-94.7,301.9l-25.8,69.4l-472.7,483.6C16748.5-32312.3,16718.5-32282.4,16703.1-32281.5z"/>
	<path class="st0" d="M19302.4-32570.3c-246.9,146.9-456.5,218.5-717.6,245.2c-212,21.2-438.5,11.5-636.9-28.1
		c-169.4-34.2-312.9-85.1-471.4-169.2c-133.5-70-191.2-109.5-187.1-126.3c0.9-3.6,47.2-54.4,102.5-113.4l101.6-107.1l17.7,4.1
		c10,1.8,34,13.2,52.7,24.5c53.6,31.8,170.3,87.7,241.2,115c152.6,59.1,265.2,75.5,517.1,76.2c390.9-0.2,555.2-40.1,801.2-193.3
		c39.5-24.9,75.8-44.9,81.2-44.9c12.7,0,206.7,198.6,212.2,216.7C19424-32647.4,19405.9-32632,19302.4-32570.3z"/>
	<path class="st0" d="M16786.5-33161.6c-8.2-8.2-40-58.2-72.2-111.3c-71.8-120.8-105.4-193.5-149.6-322.9
		c-152.4-442.8-124.2-1070.6,65.3-1440.9c43.5-85.3,111.1-193.8,137-219.6c31.7-31.7,36.8-28.6,155.8,90.4
		c92.2,92.2,102.2,104.1,101.3,117.7c-0.4,7.7-15.8,36.8-34.5,63.5c-103.4,147.9-150.1,285.4-189.9,554.2
		c-57.4,392.7-11.8,666.9,164.5,982.1c23.6,40.9,42.3,81.3,42.3,89.4c0.5,12.3-13.6,29.9-87.6,109.4
		C16819.6-33143,16810.1-33137.1,16786.5-33161.6z"/>
	<path class="st0" d="M18354-32693.9c-66.3,0-123.5-2.8-127.1-6.4c-3.6-3.6-7.7-12.3-9.5-17.7c-1.4-5.9,24-90.3,56.6-187.5
		c50.8-150.7,61.2-176.6,73.9-180.2c30-9.1,35.4,1.8,96.3,185.3C18519.2-32677.5,18525.5-32693.8,18354-32693.9z"/>
	<path class="st0" d="M16884.4-34067.3c-22.2-2.3-23.2-3.2-27.3-37.2c-6.4-59-7.4-232.4-1.5-244.7c4.6-8.2,12.7-12.7,23.6-13.6
		c20.4-1.3,329.7,118.3,344.7,133.3c12.7,12.7,13.6,29.1,2.3,40.4C17213-34176,16903.9-34065.9,16884.4-34067.3z"/>
	<path class="st0" d="M17766.5-34777.6c-5.9-0.5-84.5-22.7-174.8-49.6l-164.4-49.1l-38.1-34.5c-20.4-19.5-243.5-239.9-495.6-490.2
		l-457.9-455.2l0.4-20.4c-0.5-20.4,0.9-21.8,121.6-142.4c112.5-112.5,123-122,137.5-121.1c15,0.5,56.8,41.4,510.1,494.7l494.3,494.3
		l45.5,147.1c60.5,195.7,61,198.9,45.1,214.8C17782.8-34782.2,17772.4-34777.2,17766.5-34777.6z"/>
	<path class="st0" d="M20049.9-32281.1c-13.2,2.3-36.8-20.4-379.3-354.8c-200.8-196.3-423.4-415.2-494.7-486.6l-129.5-129.5
		l-62.3-178.5c-64.1-184.8-70.1-214.3-42.8-222.5c7.2-1.8,93.1,21.4,192,52.3l178,56.4l497,494.2c458.8,457,496.5,495.6,495.6,508.3
		C20302.1-32521.5,20070.3-32284.2,20049.9-32281.1z"/>
	<path class="st0" d="M19181.5-35574.8c-12.7-8.2-73.6-40-134.9-71.4c-125.4-63.6-273.4-118.2-382.3-140.1
		c-193.9-39.6-408.2-33.4-617.4,16.9c-142.5,34.4-347.7,111.4-480.7,179.9c-27.2,13.6-54,24.9-60.8,25.4
		c-19.1,0.9-209-182.6-211.7-204.4c-2.3-13.2,2.3-18.6,31.8-43.6c48.5-41.3,153.8-106.6,247.3-153.8c177-89.8,361.8-131,638.7-143.5
		c444-19.7,818.1,73.2,1145.1,284c60.4,38.6,69.9,50.9,59.5,74c-3.6,8.2-46.2,54.4-94.8,103
		C19222.4-35549.4,19222.8-35549.8,19181.5-35574.8z"/>
	<path class="st0" d="M19919.9-33156.9c-17.3-1.8-27.7-10.5-113.6-96.3c-85.4-85.4-93.6-95.4-93.6-109.9
		c0.9-9.1,16.3-47.2,35.4-85.3c266.6-538.3,271.3-1009.9,15.3-1519c-33.2-65.9-47.3-100.8-44.5-110.8c1.8-10,33.6-47.2,96.2-114.3
		l92.6-98.9l19.5,4.1c19.5,4.1,21.3,5.9,68.2,99c183.2,361.9,272.4,687,273.5,1000.3c1.1,249.7-46,459.4-161.6,718.5
		c-43.1,96.7-112,229.2-147.3,282.7C19939.9-33155.9,19938.5-33154.6,19919.9-33156.9z"/>
	<path class="st0" d="M19843.9-34068.5c-19.5,0.4-334.2-107.4-343.7-116.9c-2.7-2.7-6.8-11.4-8.2-18.2c-2.3-6.8,1.3-17.7,7.7-24
		c12.2-12.2,319.5-134.2,342.2-135.1c32.2-2.3,36.3,15.5,35.1,142.1C19875.7-34085.8,19871.6-34068,19843.9-34068.5z"/>
	<path class="st0" d="M18365.8-35343.3c-15.9,0.5-32.2-14.1-35.9-31.4c-1.4-5.9-26.8-78.5-56.9-161.2c-30-82.6-53.7-156.2-52.3-163
		c0.5-6.8,5-16.8,9.1-20.9c9.1-9.1,246.5-19.4,263.8-12.1c21.8,10,15.9,43.1-27.2,163.4c-24,65.8-50.7,141.6-60.3,168.4
		C18386.7-35345.1,18385.4-35342.9,18365.8-35343.3z"/>
	<path class="st0" d="M19825.3-35387.3l-481.4,478.6l-188.8,65.3c-103.5,36.2-194.7,64.8-201.5,64.3c-14.5-1.8-21.3-7.7-24.5-20.9
		c-0.9-5.4,7.2-37.2,18.1-70.8c10.9-33.6,37.6-117.6,58.9-186.1l39.4-124.8l968.1-968.1l22.2,0.5l22.2-0.5l122.2,122.2
		c114,114,122.6,123.6,124.5,141.7l2.3,19.5L19825.3-35387.3z"/>
</g>
<text transform="matrix(1 0 0 1 474.0027 4603.6167)" class="st7 st2">QickS</text>
<text transform="matrix(1 0 0 1 2059.2644 4603.6167)" class="st7 st2">ft</text>
<g transform="translate(0.000000,1024.000000) scale(0.100000,-0.100000)">
	<path class="st0" d="M16221.2,6124.4c-15.5,0.9-25-7.7-146.7-129.5c-111.3-111.3-130.4-132.2-129.5-143.1
		c0.9-10,98.9-108.9,481.8-487.3l480.4-474.1l177.4-58.4c97.6-32.2,184.3-58.9,193.8-59.3c11.8,0,19.5,4.1,25,13.2
		c8.2,14.5-16.3,92.6-94.7,301.9l-25.8,69.4l-472.7,483.6C16266.6,6093.6,16236.6,6123.5,16221.2,6124.4z"/>
	<path class="st0" d="M18820.5,5835.6c-246.9,146.9-456.5,218.5-717.6,245.2c-212,21.2-438.5,11.5-636.9-28.1
		c-169.4-34.2-312.9-85.1-471.4-169.2c-133.5-70-191.2-109.5-187.1-126.3c0.9-3.6,47.2-54.4,102.5-113.4l101.6-107.1l17.7,4.1
		c10,1.8,34,13.2,52.7,24.5c53.6,31.8,170.3,87.7,241.2,115c152.6,59.1,265.2,75.5,517.1,76.2c390.9-0.2,555.2-40.1,801.2-193.3
		c39.5-24.9,75.8-44.9,81.2-44.9c12.7,0,206.7,198.6,212.2,216.7C18942.1,5758.5,18924,5773.9,18820.5,5835.6z"/>
	<path class="st0" d="M16304.6,5244.2c-8.2-8.2-40-58.2-72.2-111.3c-71.8-120.8-105.4-193.5-149.6-322.9
		c-152.4-442.8-124.2-1070.6,65.3-1440.9c43.5-85.3,111.1-193.8,137-219.6c31.7-31.7,36.8-28.6,155.8,90.4
		c92.2,92.2,102.2,104.1,101.3,117.7c-0.4,7.7-15.8,36.8-34.5,63.5c-103.4,147.9-150.1,285.4-189.9,554.2
		c-57.4,392.7-11.8,666.9,164.5,982.1c23.6,40.9,42.3,81.3,42.3,89.4c0.5,12.3-13.6,29.9-87.6,109.4
		C16337.8,5262.8,16328.2,5268.7,16304.6,5244.2z"/>
	<path class="st0" d="M17872.1,5711.9c-66.3,0-123.5-2.8-127.1-6.4c-3.6-3.6-7.7-12.3-9.5-17.7c-1.4-5.9,24-90.3,56.6-187.5
		c50.8-150.7,61.2-176.6,73.9-180.2c30-9.1,35.4,1.8,96.3,185.3C18037.3,5728.4,18043.7,5712,17872.1,5711.9z"/>
	<path class="st0" d="M16402.5,4338.6c-22.2-2.3-23.2-3.2-27.3-37.2c-6.4-59-7.4-232.4-1.5-244.7c4.6-8.2,12.7-12.7,23.6-13.6
		c20.4-1.3,329.7,118.3,344.7,133.3c12.7,12.7,13.6,29.1,2.3,40.4C16731.2,4229.8,16422,4340,16402.5,4338.6z"/>
	<path class="st0" d="M17284.6,3628.2c-5.9-0.5-84.5-22.7-174.8-49.6l-164.4-49.1l-38.1-34.5c-20.4-19.5-243.5-239.9-495.6-490.2
		l-457.9-455.2l0.4-20.4c-0.5-20.4,0.9-21.8,121.6-142.4c112.5-112.5,123-122,137.5-121.1c15,0.5,56.8,41.4,510.1,494.7l494.3,494.3
		l45.5,147.1c60.5,195.7,61,198.9,45.1,214.8C17300.9,3623.7,17290.5,3628.7,17284.6,3628.2z"/>
	<path class="st0" d="M19568,6124.8c-13.2,2.3-36.8-20.4-379.3-354.8c-200.8-196.3-423.4-415.2-494.7-486.6l-129.5-129.5
		l-62.3-178.5c-64.1-184.8-70.1-214.3-42.8-222.5c7.2-1.8,93.1,21.4,192,52.3l178,56.4l497,494.2c458.8,457,496.5,495.6,495.6,508.3
		C19820.2,5884.4,19588.4,6121.6,19568,6124.8z"/>
	<path class="st0" d="M18699.6,2831c-12.7-8.2-73.6-40-134.9-71.4c-125.4-63.6-273.4-118.2-382.3-140.1
		c-193.9-39.6-408.2-33.4-617.4,16.9c-142.5,34.4-347.7,111.4-480.7,179.9c-27.2,13.6-54,24.9-60.8,25.4
		c-19.1,0.9-209-182.6-211.7-204.4c-2.3-13.2,2.3-18.6,31.8-43.6c48.5-41.3,153.8-106.6,247.3-153.8c177-89.8,361.8-131,638.7-143.5
		c444-19.7,818.1,73.2,1145.1,284c60.4,38.6,69.9,50.9,59.5,74c-3.6,8.2-46.2,54.4-94.8,103
		C18740.5,2856.5,18740.9,2856,18699.6,2831z"/>
	<path class="st0" d="M19438,5249c-17.3-1.8-27.7-10.5-113.6-96.3c-85.4-85.4-93.6-95.4-93.6-109.9c0.9-9.1,16.3-47.2,35.4-85.3
		c266.6-538.2,271.3-1009.9,15.3-1519c-33.2-65.9-47.3-100.8-44.5-110.8c1.8-10,33.6-47.2,96.2-114.3l92.6-98.9l19.5,4.1
		c19.5,4.1,21.3,5.9,68.2,99c183.2,361.9,272.4,687,273.5,1000.3c1.1,249.7-46,459.4-161.6,718.5c-43.1,96.7-112,229.2-147.3,282.7
		C19458,5249.9,19456.6,5251.3,19438,5249z"/>
	<path class="st0" d="M19362,4337.3c-19.5,0.4-334.2-107.4-343.7-116.9c-2.7-2.7-6.8-11.3-8.2-18.2c-2.3-6.8,1.3-17.7,7.7-24
		c12.2-12.2,319.5-134.2,342.2-135.1c32.2-2.3,36.3,15.5,35.1,142.1C19393.8,4320.1,19389.7,4337.8,19362,4337.3z"/>
	<path class="st0" d="M17883.9,3062.5c-15.9,0.5-32.2-14.1-35.9-31.4c-1.4-5.9-26.8-78.5-56.9-161.2c-30-82.6-53.7-156.2-52.3-163
		c0.5-6.8,5-16.8,9.1-20.9c9.1-9.1,246.5-19.4,263.8-12.1c21.8,10,15.9,43.1-27.2,163.4c-24,65.8-50.7,141.6-60.3,168.4
		C17904.8,3060.7,17903.5,3063,17883.9,3062.5z"/>
	<path class="st0" d="M19343.5,3018.5l-481.4,478.6l-188.8,65.3c-103.5,36.2-194.7,64.8-201.5,64.3c-14.5-1.8-21.3-7.7-24.5-20.9
		c-0.9-5.4,7.2-37.2,18.1-70.8s37.6-117.6,58.9-186.1l39.4-124.8l968.1-968.1l22.2,0.5l22.2-0.5l122.2,122.2
		c114,114,122.6,123.6,124.5,141.7l2.3,19.5L19343.5,3018.5z"/>
</g>
<text transform="matrix(1 0 0 1 312.8136 763.0306)" class="st8 st2">QickS</text>
<text transform="matrix(1 0 0 1 2004.0754 763.0308)" class="st8 st2">ft</text>
</svg>
