<?xml version="1.0" encoding="utf-8"?>
<!-- Generator: Adobe Illustrator 24.1.2, SVG Export Plug-In . SVG Version: 6.00 Build 0)  -->
<svg version="1.1" id="Слой_1" xmlns="http://www.w3.org/2000/svg" xmlns:xlink="http://www.w3.org/1999/xlink" x="0px" y="0px"
	 viewBox="0 0 1024 1024" style="enable-background:new 0 0 1024 1024;" xml:space="preserve">
<style type="text/css">
	.st0{fill:#C60006;}
</style>
<g transform="translate(0.000000,1024.000000) scale(0.100000,-0.100000)">
	<path class="st0" d="M5491.6,10215.6c-20.6,23.1-46.3,24.4-390.6,24.4c-314.8,0-371.3-2.6-385.5-19.2
		c-12.8-15.4-14.1-293.9-7.7-1370.5l9-1349.9l168.3-333.6c92.5-183.5,177.3-343.9,190.2-358c16.7-16.7,33.4-21.8,54-16.7
		c32.1,9,107.9,154,293,560.8l61.7,134.7l15.4,1352.5C5512.2,10107.8,5512.2,10192.5,5491.6,10215.6z"/>
	<path class="st0" d="M8759.1,6131.2c-141.3,556.9-336.6,954.7-668.1,1361.5c-269.8,329.8-603.9,636.5-940.5,861
		c-287.8,191.2-562.8,322.1-905.9,427.3c-287.8,89.8-425.3,115.5-443.3,86c-3.9-6.4-10.3-143.7-15.4-305.4l-7.7-295.1l30.8-19.2
		c16.7-11.5,66.8-29.5,109.2-39.8c120.8-30.8,364.9-116.8,503.7-178.4c299.4-132.2,481.8-268.2,839-623.6
		c552.5-553.1,728.5-841.8,859.6-1406.4c20.6-91.1,43.7-170.7,51.4-178.4c18-18,573.1-11.5,606.5,6.4
		C8822.1,5850.1,8818.2,5897.6,8759.1,6131.2z"/>
	<path class="st0" d="M4364.8,8852.9c-23.1,0-138.8-25.7-259.5-55.2c-272.4-69.3-422.7-124.5-668.1-245.1
		C2595.5,8142,1747.5,7214.2,1491.8,6422.5c-59.1-182.2-116.9-431.2-116.9-504.3c0-89.8,11.6-92.4,348.2-92.4
		c260.8,0,291.7,2.6,309.7,23.1c10.3,11.5,29.6,74.4,41.1,138.6c63,355.4,191.4,615.9,515.2,1052.2
		c474.1,636.5,926.4,959.8,1621.5,1156.2c91.2,24.4,174.7,55.2,186.3,66.7c18,16.7,23.1,61.6,30.8,278.5
		C4438,8832.3,4432.9,8854.1,4364.8,8852.9z"/>
	<path class="st0" d="M7243,7297.6c-93.8,93.7-178.6,170.7-188.9,170.7c-10.3,0-28.3-6.4-38.5-11.5c-10.3-6.4-93.8-161.7-185-345.2
		c-141.3-284.9-163.2-336.2-150.3-359.3c29.6-55.2,52.7-47.5,398.3,125.8C7499.9,7087.2,7485.8,7055.1,7243,7297.6z"/>
	<path class="st0" d="M3222.5,7433.6c-34.7,28.2-37.3,28.2-91.2-14.1c-92.5-74.4-339.2-318.2-348.2-343.9c-5.1-18,0-35.9,14.1-52.6
		c27-30.8,633.5-299,675.9-299c36,0,60.4,21.8,60.4,53.9C3533.5,6815.1,3252.1,7408,3222.5,7433.6z"/>
	<path class="st0" d="M3465.4,5181.6c-9,7.7-151.6,87.3-317.4,177.1l-302,163l-102.8,5.1c-56.5,1.3-683.6,5.1-1394.1,7.7
		l-1291.3,3.8l-28.3-29.5C0,5480.6,0,5476.7,0,5135.4c0-318.2,1.3-346.5,23.1-365.7c21.8-20.5,138.8-21.8,1421.1-21.8h1398
		l272.4,143.7c362.3,191.2,367.5,195,367.5,240C3482.1,5152.1,3474.4,5173.9,3465.4,5181.6z"/>
	<path class="st0" d="M10225.2,5483.1c-15.4,21.8-80.9,23.1-1038.2,34.6c-561.5,6.4-1186,11.5-1387.7,11.5h-366.2l-340.5-164.3
		c-352.1-170.7-402.2-204-375.2-254.1c7.7-12.8,161.9-101.4,345.6-197.6l331.5-171.9l1401.8-3.9c1295.2-2.6,1403.1-1.3,1419.8,18
		C10241.9,4786.4,10249.6,5449.8,10225.2,5483.1z"/>
	<path class="st0" d="M4339.1,2053.1c-29.6,6.4-160.6,47.5-291.7,89.8c-267.3,87.3-553.8,219.4-738.8,342.6
		c-330.2,218.1-624.5,530-849.3,897c-152.9,250.2-334.1,649.3-425.3,934.2c-19.3,57.7-41.1,111.6-50.1,121.9
		c-25.7,28.2-553.8,37.2-588.5,10.3c-21.8-15.4-23.1-29.5-16.7-106.5c10.3-127,66.8-368.3,132.3-567.2
		c123.3-377.3,326.4-696.8,700.3-1106.1c600-655.7,1260.5-1053.5,2021.1-1217.8c140.1-30.8,170.9-26.9,188.9,20.5
		c6.4,16.7,11.6,142.4,11.6,279.7C4432.9,2031.3,4432.9,2030,4339.1,2053.1z"/>
	<path class="st0" d="M8802.8,4428.4c-27,21.8-54,24.4-296.8,24.4c-241.6,0-267.3-2.6-287.8-23.1c-11.6-14.1-43.7-89.8-70.7-170.7
		C7763.3,3120.8,7102.9,2447.1,6021,2089.1c-140.1-46.2-209.4-75.7-219.7-93.7c-11.6-16.7-19.3-114.2-25.7-297.7l-9-270.8l33.4-21.8
		c33.4-21.8,38.5-21.8,236.4,43.6c770.9,252.8,1356.8,586.4,1801.4,1027.8c354.6,351.6,584.6,714.7,787.6,1244.7
		c75.8,197.6,165.8,482.5,191.5,608.2C8832.4,4401.4,8832.4,4405.3,8802.8,4428.4z"/>
	<path class="st0" d="M7406.1,3246.5c-27,28.2-624.5,320.8-651.4,320.8c-7.7,0-25.7-6.4-37.3-14.1c-12.8-6.4-23.1-26.9-23.1-44.9
		c0-34.6,262.1-641.6,293-675c42.4-48.8,73.2-29.5,250.6,151.4C7426.7,3177.2,7446,3208,7406.1,3246.5z"/>
	<path class="st0" d="M3512.9,3534c-21.8,23.1-65.5,25.7-95.1,6.4c-10.3-6.4-149-73.1-308.4-147.6
		c-159.3-74.4-296.8-145-304.5-156.6c-9-10.3-16.7-30.8-16.7-42.3c0-25.7,321.2-376,355.9-390.1c45-16.7,83.5,38.5,192.7,269.5
		c59.1,127,128.5,272,152.9,323.4C3539.9,3501.9,3541.2,3507,3512.9,3534z"/>
	<path class="st0" d="M5514.8,1407.7l-3.9,1357.6l-174.7,359.3c-95.1,197.6-183.7,367-194,376c-23.1,18-41.1,19.2-64.2,5.1
		c-9-6.4-42.4-62.9-74.5-125.8c-32.1-62.9-113.1-219.4-179.9-346.5l-120.8-232.3V62.9l32.1-30.8L4765.7,0h345.6
		c322.5,0,348.2,1.3,376.5,24.4l30.8,24.4L5514.8,1407.7z"/>
</g>
</svg>
