<?xml version="1.0" encoding="utf-8"?>
<!-- Generator: Adobe Illustrator 24.1.2, SVG Export Plug-In . SVG Version: 6.00 Build 0)  -->
<svg version="1.1" id="Слой_1" xmlns="http://www.w3.org/2000/svg" xmlns:xlink="http://www.w3.org/1999/xlink" x="0px" y="0px"
	 viewBox="0 0 1024 1024" style="enable-background:new 0 0 1024 1024;" xml:space="preserve">
<style type="text/css">
	.st0{fill:#C60006;}
</style>
<g transform="translate(0.000000,1024.000000) scale(0.100000,-0.100000)">
	<path class="st0" d="M4715.6,10220.8c-12.8-15.4-14.1-293.9-7.7-1370.5l9-1349.9l168.3-333.6c92.5-183.5,177.3-343.9,190.2-358
		c16.7-16.7,33.4-21.8,54-16.7c32.1,9,107.9,154,293,560.8l61.7,134.7l15.4,1352.5c12.8,1267.8,12.8,1352.5-7.7,1375.6
		s-46.3,24.4-390.6,24.4C4786.2,10240,4729.7,10237.4,4715.6,10220.8z M5383.7,9933.3c0-98.8-6.4-685.2-14.1-1303.7l-12.8-1124.1
		l-116.9-248.9c-65.5-137.3-120.8-250.2-124.6-250.2s-66.8,116.8-140.1,260.5L4842.8,7526l-7.7,1293.5l-7.7,1292.2h277.5h278.8
		V9933.3z"/>
	<path class="st0" d="M5801.3,8867c-3.9-6.4-10.3-143.7-15.4-305.4l-7.7-295.1l30.8-19.2c16.7-11.5,66.8-29.5,109.2-39.8
		c120.8-30.8,364.9-116.8,503.7-178.4c299.4-132.2,481.8-268.2,839-623.6c552.5-553.1,728.5-841.8,859.6-1406.4
		c20.6-91.1,43.7-170.7,51.4-178.4c18-18,573.1-11.5,606.5,6.4c43.7,23.1,39.8,70.6-19.3,304.1
		c-141.3,556.9-336.6,954.7-668.1,1361.5c-269.8,329.8-603.9,636.5-940.5,861c-287.8,191.2-562.8,322.1-905.9,427.3
		C5956.8,8870.8,5819.3,8896.5,5801.3,8867z M6112.2,8700.2c549.9-157.8,954.7-381.1,1404.4-776.3
		c508.8-449.1,850.6-943.2,1036.9-1501.4c55.3-164.3,140.1-478.6,131.1-486.3c-2.6-2.6-100.2-6.4-215.9-9L8258,5922l-41.1,166.8
		c-136.2,533.8-314.8,829-814.6,1344.8c-332.8,341.3-565.4,522.3-855.7,663.4c-159.3,77-409.9,171.9-561.5,211.7l-87.4,23.1V8482
		c0,163,10.3,269.5,25.7,269.5C5929.8,8751.5,6013.3,8728.4,6112.2,8700.2z"/>
	<path class="st0" d="M4105.2,8797.7c-272.4-69.3-422.7-124.5-668.1-245.1C2595.5,8142,1747.5,7214.2,1491.8,6422.5
		c-59.1-182.2-116.9-431.2-116.9-504.3c0-89.8,11.6-92.4,348.2-92.4c260.8,0,291.7,2.6,309.7,23.1c10.3,11.5,29.6,74.4,41.1,138.6
		c63,355.4,191.4,615.9,515.2,1052.2c474.1,636.5,926.4,959.8,1621.5,1156.2c91.2,24.4,174.7,55.2,186.3,66.7
		c18,16.7,23.1,61.6,30.8,278.5c10.3,291.3,5.1,313.1-63,311.8C4341.7,8852.9,4226,8827.2,4105.2,8797.7z M4310.8,8711.7
		c5.1-7.7,5.1-93.7,0-192.5l-9-178.4l-54-12.8c-28.3-7.7-115.6-34.6-194-60.3c-699-227.1-1124.3-555.6-1630.5-1258.8
		c-269.8-376-393.2-633.9-452.3-948.3l-23.1-119.3h-228.7h-230l9,48.8c20.6,118.1,97.7,395.2,140.1,504.3
		c197.9,514.6,659.2,1104.8,1202.7,1541.1c394.5,317,804.3,524.8,1277.2,646.7C4312.1,8730.9,4300.5,8729.7,4310.8,8711.7z"/>
	<path class="st0" d="M7015.5,7456.7c-10.3-6.4-93.8-161.7-185-345.2c-141.3-284.9-163.2-336.2-150.3-359.3
		c29.6-55.2,52.7-47.5,398.3,125.8c421.4,209.2,407.3,177.1,164.5,419.6c-93.8,93.7-178.6,170.7-188.9,170.7
		C7043.8,7468.3,7025.8,7461.9,7015.5,7456.7z M7163.3,7198.8c48.8-48.8,86.1-91.1,82.2-95c-2.6-2.6-87.4-46.2-187.6-96.2
		l-183.7-91.1l92.5,186.1c51.4,102.7,96.4,186.1,100.2,186.1C7070.8,7288.6,7114.5,7248.8,7163.3,7198.8z"/>
	<path class="st0" d="M3131.3,7419.5c-92.5-74.4-339.2-318.2-348.2-343.9c-5.1-18,0-35.9,14.1-52.6c27-30.8,633.5-299,675.9-299
		c36,0,60.4,21.8,60.4,53.9c0,37.2-281.4,630.1-310.9,655.7C3187.8,7461.9,3185.3,7461.9,3131.3,7419.5z M3258.5,7092.3
		c45-96.2,82.2-178.4,82.2-180.9c0-5.1-373.9,156.6-382.9,165.5c-7.7,6.4,196.6,197.6,206.9,195
		C3171.1,7270.7,3213.5,7189.8,3258.5,7092.3z"/>
	<path class="st0" d="M29.6,5508.8C0,5480.6,0,5476.7,0,5135.4c0-318.2,1.3-346.5,23.1-365.7c21.8-20.5,138.8-21.8,1421.1-21.8h1398
		l272.4,143.7c362.3,191.2,367.5,195,367.5,240c0,20.5-7.7,42.3-16.7,50c-9,7.7-151.6,87.3-317.4,177.1l-302,163l-102.8,5.1
		c-56.5,1.3-683.6,5.1-1394.1,7.7l-1291.3,3.8L29.6,5508.8z M3047.8,5268.9c132.3-71.9,241.6-132.2,241.6-136
		s-106.6-62.9-236.4-130.9l-236.4-125.8h-1344h-1344v269.5v269.5l1338.9-9l1338.9-7.7L3047.8,5268.9z"/>
	<path class="st0" d="M7092.6,5365.1c-352.1-170.7-402.2-204-375.2-254.1c7.7-12.8,161.9-101.4,345.6-197.6l331.5-171.9l1401.8-3.8
		c1295.2-2.6,1403.1-1.3,1419.8,18c25.7,30.8,33.4,694.2,9,727.6c-15.4,21.8-80.9,23.1-1038.2,34.6
		c-561.5,6.4-1186,11.5-1387.7,11.5h-366.2L7092.6,5365.1z M8782.3,5395.9c678.4-3.8,1255.3-10.3,1282.3-14.1l47.5-7.7v-257.9
		v-259.2l-1338.9,3.8l-1340.1,5.1l-260.8,134.7l-260.8,134.7l241.6,118.1c132.3,64.2,262.1,127,286.5,138.6s59.1,19.2,77.1,16.7
		C7534.6,5406.2,8103.8,5399.7,8782.3,5395.9z"/>
	<path class="st0" d="M1395.4,4448.9c-21.8-15.4-23.1-29.5-16.7-106.5c10.3-127,66.8-368.3,132.3-567.2
		c123.3-377.3,326.4-696.8,700.3-1106.1c600-655.7,1260.5-1053.5,2021.1-1217.8c140.1-30.8,170.9-26.9,188.9,20.5
		c6.4,16.7,11.6,142.4,11.6,279.7c0,279.7,0,278.5-93.8,301.6c-29.6,6.4-160.6,47.5-291.7,89.8c-267.3,87.3-553.8,219.4-738.8,342.6
		c-330.2,218.1-624.5,530-849.3,897c-152.9,250.2-334.1,649.3-425.3,934.2c-19.3,57.7-41.1,111.6-50.1,121.9
		C1958.2,4466.8,1430.1,4475.8,1395.4,4448.9z M1891.4,4334.7c10.3-9,38.5-71.9,61.7-138.6c55.3-157.8,176-442.7,255.7-600.5
		c425.3-841.8,1043.3-1351.2,1953-1613l149-42.3l3.9-193.8c1.3-106.5-1.3-193.8-6.4-193.8c-6.4,0-79.7,16.7-164.5,37.2
		c-708,173.2-1346.6,587.7-1929.9,1249.8c-422.7,479.9-610.3,862.3-718.3,1462.9l-7.7,47.5h191.4
		C1813,4350.1,1877.2,4344.9,1891.4,4334.7z"/>
	<path class="st0" d="M8218.2,4429.6c-11.6-14.1-43.7-89.8-70.7-170.7C7763.3,3120.8,7102.9,2447.1,6021,2089.1
		c-140.1-46.2-209.4-75.7-219.7-93.7c-11.6-16.7-19.3-114.2-25.7-297.7l-9-270.8l33.4-21.8c33.4-21.8,38.5-21.8,236.4,43.6
		c770.9,252.8,1356.8,586.4,1801.4,1027.8c354.6,351.6,584.6,714.7,787.6,1244.7c75.8,197.6,165.8,482.5,191.4,608.2
		c15.4,71.9,15.4,75.7-14.1,98.8c-27,21.8-54,24.4-296.8,24.4C8264.4,4452.7,8238.7,4450.2,8218.2,4429.6z M8698.7,4329.5
		c0-18-70.7-256.6-118.2-395.2c-187.6-558.2-429.2-971.4-774.8-1328.1c-325.1-336.2-717-601.8-1207.8-817.4
		c-284-125.8-692.6-274.6-708-257.9c-3.9,2.6-1.3,93.7,3.9,201.5l10.3,193.8l168.3,56.5c750.4,250.2,1324.7,672.4,1719.2,1262.7
		c159.3,238.7,382.9,707,476.7,1002.2c12.8,38.5,25.7,74.4,28.3,80.8C8303,4338.5,8698.7,4341.1,8698.7,4329.5z"/>
	<path class="st0" d="M6717.4,3553.2c-12.8-6.4-23.1-26.9-23.1-44.9c0-34.6,262.1-641.6,293-675c42.4-48.8,73.2-29.5,250.6,151.4
		c188.9,192.5,208.2,223.3,168.3,261.8c-27,28.2-624.5,320.8-651.4,320.8C6747,3567.3,6729,3560.9,6717.4,3553.2z M7075.9,3281.2
		l181.2-92.4l-101.5-106.5l-101.5-107.8l-30.8,69.3c-16.7,37.2-56.5,127-88.7,200.2c-32.1,71.9-55.3,130.9-50.1,129.6
		C6889.6,3373.6,6975.7,3332.5,7075.9,3281.2z"/>
	<path class="st0" d="M3417.8,3540.4c-10.3-6.4-149-73.1-308.4-147.6s-296.8-145-304.5-156.6c-9-10.3-16.7-30.8-16.7-42.3
		c0-25.7,321.2-376,355.9-390.1c45-16.7,83.5,38.5,192.7,269.5c59.1,127,128.5,272,152.9,323.4c50.1,105.2,51.4,110.4,23.1,137.3
		C3491.1,3557.1,3447.4,3559.6,3417.8,3540.4z M3254.6,3199c-38.5-83.4-77.1-166.8-84.8-186.1c-7.7-20.5-18-35.9-23.1-35.9
		c-3.9,0-50.1,46.2-101.5,102.7l-92.5,102.7l69.4,30.8c37.3,16.7,116.9,53.9,177.3,83.4c60.4,28.2,113.1,52.6,118.2,52.6
		S3294.5,3281.2,3254.6,3199z"/>
	<path class="st0" d="M5077.9,3505.7c-9-6.4-42.4-62.9-74.5-125.8c-32.1-62.9-113.1-219.4-179.9-346.5l-120.8-232.3V1432.1V62.9
		l32.1-30.8L4765.7,0h345.6c322.5,0,348.2,1.3,376.5,24.4l30.8,24.4l-3.9,1358.9l-3.9,1357.6l-174.7,359.3
		c-95.1,197.6-183.7,367-194,376C5119,3518.6,5101,3519.8,5077.9,3505.7z M5247.5,3019.4l132.3-266.9l7.7-1312.7l9-1311.4h-282.7
		h-282.7v1323v1323l136.2,263.1c74.5,143.7,138.8,259.2,142.6,256.6C5112.6,3290.1,5175.6,3167,5247.5,3019.4z"/>
</g>
</svg>
