<svg id="Слой_1" data-name="Слой 1" xmlns="http://www.w3.org/2000/svg" viewBox="0 0 1831.14 380.06">
  <defs>
    <style>
      .cls-1 {
        fill: #c60006;
      }
    </style>
  </defs>
  <g>
    <path d="M380.94,402.81H317.38l-26.25-26.58q-41.88,26.58-93.28,26.58-66.61,0-118.23-44.59Q23.43,309.13,23.43,232.8,23.43,158,76.58,108,128.21,59.57,198.5,59.56q63.78,0,114.32,42.46,60.74,51,60.74,133.14,0,64.3-47.94,114.27ZM241.88,265.68l48.6,47.77q32.1-33,32.1-81.62,0-53.33-35.79-89.32t-88.94-36q-53.81,0-88.51,36-34.93,35.78-34.93,90.61,0,53.55,36,87.61,37.53,35.13,85.69,35.13,32.76,0,59.22-14.78l-78.74-75.4Z" transform="translate(-23.43 -28.91)"/>
    <path d="M420.42,101.16a29.72,29.72,0,0,1,9.33-21.87,32,32,0,0,1,44.91,0A29.53,29.53,0,0,1,484,101.37a31.65,31.65,0,0,1-31.67,31.52,30.91,30.91,0,0,1-22.56-9.22A30.43,30.43,0,0,1,420.42,101.16ZM476.61,188V396.81H427.8V188Z" transform="translate(-23.43 -28.91)"/>
    <path d="M702.87,197V261.1q-16.71-20.16-29.93-27.66-13-7.73-30.59-7.72-27.55,0-45.78,19.08t-18.22,47.81q0,29.38,17.57,48.24,17.79,18.87,45.34,18.87,17.58,0,31-7.5,13-7.29,30.59-28.3v63.67q-29.72,15.23-59.44,15.22-49,0-82-31.3-33-31.51-33-78.25t33.4-78.9q33.4-32.16,82-32.16A123.69,123.69,0,0,1,702.87,197Z" transform="translate(-23.43 -28.91)"/>
    <path d="M810.47,34.69V255.52L879.24,188h65.52L853,275.68l98.49,121.13H888.14l-69.86-88.12-7.81,7.72v80.4H761.66V34.69Z" transform="translate(-23.43 -28.91)"/>
    <path d="M1181.65,114.88l-41,24q-11.51-19.29-21.91-25.73-10.86-6.85-28-6.86-21,0-34.92,11.81-13.89,11.58-13.89,29.17,0,24.25,36.45,39.05l33.41,13.52q40.77,16.31,59.65,39.8t18.88,57.6q0,45.71-30.81,75.53-31,30-77,30-43.6,0-72-25.63-28-25.6-34.93-71.92l51.2-11.15q3.46,29,12.15,40.31,15.61,21.45,45.55,21.44,23.64,0,39.27-15.64t15.62-39.63a55.24,55.24,0,0,0-2.71-17.68,44.87,44.87,0,0,0-8.47-14.78,67.23,67.23,0,0,0-14.86-12.64,143.18,143.18,0,0,0-21.69-11.25L1059.3,231q-68.77-28.71-68.77-84,0-37.27,28.85-62.34,28.84-25.27,71.81-25.28Q1149.11,59.35,1181.65,114.88Z" transform="translate(-23.43 -28.91)"/>
  </g>
  <g>
    <path class="cls-1" d="M1240.1,55.25c-1.43-.08-2.32.71-13.58,11.84-10.3,10.18-12.06,12.09-12,13.09s9.15,9.95,44.58,44.55l44.45,43.35,16.41,5.34c9,2.94,17,5.39,17.94,5.42a2.44,2.44,0,0,0,2.31-1.2c.75-1.33-1.51-8.47-8.76-27.6l-2.39-6.35-43.74-44.22C1244.3,58.07,1241.53,55.33,1240.1,55.25Z" transform="translate(-23.43 -28.91)"/>
    <path class="cls-1" d="M1480.58,81.66c-22.84-13.43-42.24-20-66.39-22.41a207.42,207.42,0,0,0-58.93,2.57,154.63,154.63,0,0,0-43.61,15.47c-12.35,6.4-17.69,10-17.31,11.55.08.33,4.36,5,9.49,10.37l9.4,9.79,1.63-.38a20.41,20.41,0,0,0,4.88-2.24,192.46,192.46,0,0,1,22.31-10.52c14.12-5.4,24.53-6.9,47.84-7,36.16,0,51.36,3.66,74.12,17.68,3.65,2.28,7,4.1,7.52,4.1,1.18,0,19.12-18.15,19.63-19.81C1491.83,88.71,1490.15,87.3,1480.58,81.66Z" transform="translate(-23.43 -28.91)"/>
    <path class="cls-1" d="M1247.81,135.73a116.24,116.24,0,0,0-6.68,10.18,134.49,134.49,0,0,0-13.84,29.52c-14.1,40.48-11.49,97.89,6,131.75,4,7.8,10.28,17.72,12.67,20.08,2.93,2.9,3.4,2.61,14.41-8.27,8.53-8.43,9.46-9.51,9.37-10.76,0-.7-1.46-3.36-3.18-5.81-9.57-13.52-13.89-26.1-17.57-50.67-5.31-35.9-1.09-61,15.22-89.79,2.18-3.74,3.91-7.44,3.91-8.18,0-1.12-1.26-2.74-8.1-10C1250.88,134,1250,133.49,1247.81,135.73Z" transform="translate(-23.43 -28.91)"/>
    <path class="cls-1" d="M1392.83,93c-6.13,0-11.42.25-11.76.59a4.82,4.82,0,0,0-.88,1.61c-.13.54,2.22,8.26,5.24,17.14,4.7,13.78,5.66,16.15,6.83,16.48,2.78.82,3.28-.17,8.92-16.95C1408.12,91.46,1408.71,93,1392.83,93Z" transform="translate(-23.43 -28.91)"/>
    <path class="cls-1" d="M1256.87,218.54c-2,.21-2.14.3-2.52,3.41-.59,5.39-.68,21.25-.14,22.37a2.6,2.6,0,0,0,2.18,1.25c1.89.12,30.51-10.82,31.89-12.19a2.46,2.46,0,0,0,.21-3.69C1287.28,228.48,1258.68,218.41,1256.87,218.54Z" transform="translate(-23.43 -28.91)"/>
    <path class="cls-1" d="M1338.48,283.49c-.54,0-7.81,2.08-16.17,4.54l-15.21,4.49-3.53,3.16c-1.89,1.78-22.53,21.93-45.86,44.82l-42.36,41.62,0,1.87c0,1.86.09,2,11.25,13,10.41,10.29,11.38,11.16,12.72,11.08s5.25-3.78,47.2-45.24l45.72-45.19,4.21-13.45c5.6-17.9,5.65-18.19,4.17-19.64A3.49,3.49,0,0,0,1338.48,283.49Z" transform="translate(-23.43 -28.91)"/>
    <path class="cls-1" d="M1549.73,55.22c-1.21-.21-3.4,1.87-35.09,32.44-18.57,18-39.17,38-45.76,44.49l-12,11.84-5.77,16.32c-5.93,16.9-6.48,19.59-4,20.34.67.17,8.61-2,17.77-4.78l16.47-5.16,46-45.19c42.45-41.79,45.94-45.32,45.85-46.48C1573.07,77.2,1551.62,55.51,1549.73,55.22Z" transform="translate(-23.43 -28.91)"/>
    <path class="cls-1" d="M1469.4,356.38c-1.18.75-6.81,3.66-12.48,6.53-11.6,5.82-25.3,10.81-35.38,12.81-17.93,3.62-37.76,3-57.12-1.54A233.18,233.18,0,0,1,1320,357.73a29.79,29.79,0,0,0-5.62-2.33c-1.77-.08-19.34,16.7-19.59,18.7-.21,1.2.21,1.7,2.94,4,4.49,3.77,14.23,9.75,22.88,14.06,16.37,8.21,33.47,12,59.09,13.12,41.07,1.8,75.69-6.7,105.94-26,5.59-3.54,6.47-4.66,5.51-6.77-.34-.75-4.28-5-8.77-9.42C1473.18,354.06,1473.22,354.1,1469.4,356.38Z" transform="translate(-23.43 -28.91)"/>
    <path class="cls-1" d="M1537.71,135.3c-1.6.16-2.57.95-10.51,8.8s-8.66,8.73-8.66,10.05a42.41,42.41,0,0,0,3.27,7.81c24.67,49.21,25.1,92.34,1.42,138.89-3.07,6-4.37,9.21-4.12,10.13s3.11,4.32,8.9,10.45l8.56,9.05,1.81-.38c1.8-.37,2-.54,6.3-9.05,17-33.09,25.2-62.82,25.31-91.46.1-22.83-4.26-42-15-65.7-4-8.84-10.36-20.95-13.63-25.85C1539.56,135.21,1539.43,135.09,1537.71,135.3Z" transform="translate(-23.43 -28.91)"/>
    <path class="cls-1" d="M1530.68,218.66c-1.8,0-30.92,9.81-31.8,10.68a4.21,4.21,0,0,0-.76,1.66,2.46,2.46,0,0,0,.71,2.2c1.14,1.12,29.56,12.27,31.67,12.35,3,.21,3.36-1.41,3.24-13C1533.62,220.23,1533.25,218.61,1530.68,218.66Z" transform="translate(-23.43 -28.91)"/>
    <path class="cls-1" d="M1393.93,335.22a3.63,3.63,0,0,0-3.32,2.87c-.13.54-2.48,7.18-5.26,14.74s-5,14.28-4.84,14.9a3.56,3.56,0,0,0,.84,1.91c.84.83,22.8,1.77,24.4,1.11,2-.92,1.47-3.95-2.51-14.95-2.22-6-4.7-12.94-5.58-15.39C1395.86,335.38,1395.74,335.18,1393.93,335.22Z" transform="translate(-23.43 -28.91)"/>
    <path class="cls-1" d="M1529,339.24l-44.53-43.76-17.47-6c-9.57-3.31-18-5.92-18.64-5.88a2.26,2.26,0,0,0-2.27,1.91,32.24,32.24,0,0,0,1.68,6.47c1,3.07,3.48,10.75,5.45,17l3.64,11.42L1546.39,409l2.06,0,2.06,0,11.3-11.17c10.55-10.42,11.35-11.3,11.52-13l.21-1.78Z" transform="translate(-23.43 -28.91)"/>
  </g>
  <g>
    <path d="M1668.87,233v163.8h-49V233h-17.35V188h17.35V107.38q0-39.45,13.89-55.75,19.08-22.73,55.53-22.72,14.33,0,32.76,7.5V85.72l-5-2.57q-15.84-7.94-26-7.93-13,0-17.57,9.21-4.56,9-4.56,34.74V188H1722v45Z" transform="translate(-23.43 -28.91)"/>
    <path d="M1816.6,233v163.8h-48.81V233H1747V188h20.82V111.45h48.81V188h38v45Z" transform="translate(-23.43 -28.91)"/>
  </g>
</svg>
