<svg id="Слой_1" data-name="Слой 1" xmlns="http://www.w3.org/2000/svg" viewBox="0 0 1831.2 380.09">
  <defs>
    <style>
      .cls-1 {
        fill: #fff;
      }

      .cls-2 {
        fill: #c60006;
      }
    </style>
  </defs>
  <g>
    <path class="cls-1" d="M357.51,373.9H294L267.7,347.32q-41.88,26.58-93.28,26.58-66.61,0-118.23-44.59Q0,280.21,0,203.89q0-74.8,53.15-124.8,51.63-48.44,121.92-48.44,63.78,0,114.32,42.46,60.74,51,60.74,133.14,0,64.31-47.94,114.27ZM218.45,236.77l48.6,47.77q32.1-33,32.1-81.62,0-53.32-35.79-89.32t-88.94-36q-53.8,0-88.51,36Q51,149.38,51,204.21q0,53.55,36,87.61Q124.51,327,172.67,327q32.76,0,59.22-14.78l-78.74-75.4Z" transform="translate(0 0)"/>
    <path class="cls-1" d="M397,72.25a29.7,29.7,0,0,1,9.33-21.87,32,32,0,0,1,44.91,0,29.51,29.51,0,0,1,9.34,22.08A31.65,31.65,0,0,1,428.9,104a30.9,30.9,0,0,1-22.56-9.22A30.4,30.4,0,0,1,397,72.25Zm56.19,86.84V367.9H404.37V159.09Z" transform="translate(0 0)"/>
    <path class="cls-1" d="M679.44,168.09v64.1Q662.73,212,649.51,204.53q-13-7.72-30.59-7.72-27.55,0-45.78,19.08T554.92,263.7q0,29.39,17.57,48.24,17.79,18.87,45.34,18.87,17.58,0,31-7.5,13-7.29,30.59-28.3v63.67Q649.71,373.91,620,373.9q-49,0-82-31.3-33-31.52-33-78.25t33.4-78.9q33.4-32.16,82-32.16A123.73,123.73,0,0,1,679.44,168.09Z" transform="translate(0 0)"/>
    <path class="cls-1" d="M787,5.78V226.61l68.77-67.52h65.52l-91.76,87.68L928.06,367.9H864.71l-69.86-88.12L787,287.5v80.4H738.23V5.78Z" transform="translate(0 0)"/>
    <path class="cls-1" d="M1158.22,86l-41,24q-11.51-19.29-21.91-25.73-10.86-6.85-28-6.86-21,0-34.92,11.81-13.89,11.58-13.89,29.17,0,24.26,36.45,39.05l33.41,13.52q40.77,16.31,59.65,39.8t18.88,57.6q0,45.71-30.81,75.53-31,30-77,30-43.6,0-72-25.63-28-25.61-34.93-71.92l51.2-11.15q3.46,29,12.15,40.31,15.62,21.45,45.55,21.44,23.64,0,39.27-15.64t15.62-39.63a55.28,55.28,0,0,0-2.71-17.68,44.84,44.84,0,0,0-8.47-14.78,67.34,67.34,0,0,0-14.86-12.64,143.79,143.79,0,0,0-21.69-11.25l-32.34-13.2q-68.77-28.71-68.77-84,0-37.28,28.85-62.34,28.84-25.27,71.81-25.28Q1125.67,30.44,1158.22,86Z" transform="translate(0 0)"/>
  </g>
  <g>
    <path class="cls-2" d="M1216.67,26.34c-1.43-.08-2.32.71-13.58,11.84-10.3,10.18-12.06,12.09-12,13.09s9.15,9.95,44.58,44.55l44.45,43.35,16.41,5.34c9,2.94,17,5.39,17.94,5.42a2.43,2.43,0,0,0,2.31-1.2c.75-1.33-1.51-8.47-8.76-27.6l-2.39-6.35-43.74-44.22C1220.87,29.16,1218.1,26.42,1216.67,26.34Z" transform="translate(0 0)"/>
    <path class="cls-2" d="M1457.15,52.75c-22.84-13.43-42.24-20-66.39-22.41a207.22,207.22,0,0,0-58.93,2.57,154.8,154.8,0,0,0-43.61,15.47c-12.35,6.4-17.69,10-17.31,11.55.08.33,4.36,5,9.49,10.37l9.4,9.79,1.63-.38a20.35,20.35,0,0,0,4.88-2.24A193.12,193.12,0,0,1,1318.62,67c14.12-5.4,24.53-6.9,47.84-7,36.16,0,51.36,3.66,74.12,17.68,3.65,2.28,7,4.1,7.52,4.1,1.18,0,19.12-18.15,19.63-19.81C1468.4,59.8,1466.72,58.39,1457.15,52.75Z" transform="translate(0 0)"/>
    <path class="cls-2" d="M1224.38,106.82A116.55,116.55,0,0,0,1217.7,117a134.74,134.74,0,0,0-13.84,29.52c-14.1,40.48-11.49,97.89,6,131.75,4,7.8,10.28,17.72,12.67,20.08,2.93,2.9,3.4,2.61,14.41-8.27,8.53-8.43,9.46-9.51,9.37-10.76,0-.7-1.46-3.36-3.18-5.81-9.57-13.52-13.89-26.1-17.57-50.67-5.31-35.9-1.09-61,15.22-89.79,2.18-3.74,3.91-7.44,3.91-8.18,0-1.12-1.26-2.74-8.1-10C1227.45,105.09,1226.57,104.58,1224.38,106.82Z" transform="translate(0 0)"/>
    <path class="cls-2" d="M1369.4,64.09c-6.13,0-11.42.25-11.76.59a5,5,0,0,0-.88,1.61c-.13.54,2.22,8.26,5.24,17.14,4.7,13.78,5.66,16.15,6.83,16.48,2.78.82,3.28-.17,8.92-17C1384.69,62.55,1385.28,64.09,1369.4,64.09Z" transform="translate(0 0)"/>
    <path class="cls-2" d="M1233.44,189.63c-2,.21-2.14.3-2.52,3.41-.59,5.39-.68,21.25-.14,22.37a2.6,2.6,0,0,0,2.18,1.25c1.89.12,30.51-10.82,31.89-12.19a2.45,2.45,0,0,0,.42-3.45,1.21,1.21,0,0,0-.21-.24C1263.85,199.57,1235.25,189.5,1233.44,189.63Z" transform="translate(0 0)"/>
    <path class="cls-2" d="M1315.05,254.58c-.54,0-7.81,2.08-16.17,4.54l-15.21,4.49-3.53,3.16c-1.89,1.78-22.53,21.93-45.86,44.82l-42.36,41.62v1.87c0,1.86.09,2,11.25,13,10.41,10.29,11.38,11.16,12.72,11.08s5.25-3.78,47.2-45.24l45.72-45.19,4.21-13.45c5.6-17.9,5.65-18.19,4.17-19.64A3.51,3.51,0,0,0,1315.05,254.58Z" transform="translate(0 0)"/>
    <path class="cls-2" d="M1526.3,26.31c-1.21-.21-3.4,1.87-35.09,32.44-18.57,18-39.17,38-45.76,44.49l-12,11.84-5.77,16.32c-5.93,16.9-6.48,19.59-4,20.34.67.17,8.61-2,17.77-4.78l16.47-5.16,46-45.19c42.45-41.79,45.94-45.32,45.85-46.48C1549.64,48.29,1528.19,26.6,1526.3,26.31Z" transform="translate(0 0)"/>
    <path class="cls-2" d="M1446,327.47c-1.18.75-6.81,3.66-12.48,6.53-11.6,5.82-25.3,10.81-35.38,12.81-17.93,3.62-37.76,3-57.12-1.54a232.8,232.8,0,0,1-44.42-16.45,29.35,29.35,0,0,0-5.62-2.33c-1.77-.08-19.34,16.7-19.59,18.7-.21,1.2.21,1.7,2.94,4,4.49,3.77,14.23,9.75,22.88,14.06,16.37,8.21,33.47,12,59.09,13.12,41.07,1.8,75.69-6.7,105.94-26,5.59-3.54,6.47-4.66,5.51-6.77-.34-.75-4.28-5-8.77-9.42C1449.75,325.15,1449.79,325.19,1446,327.47Z" transform="translate(0 0)"/>
    <path class="cls-2" d="M1514.28,106.39c-1.6.16-2.57,1-10.51,8.8s-8.66,8.73-8.66,10a42.43,42.43,0,0,0,3.27,7.81c24.67,49.21,25.1,92.34,1.42,138.89-3.07,6-4.37,9.21-4.12,10.13s3.11,4.32,8.9,10.45l8.56,9.05,1.81-.38c1.8-.37,2-.54,6.3-9.05,17-33.09,25.2-62.82,25.31-91.46.1-22.83-4.26-42-15-65.7-4-8.84-10.36-20.95-13.63-25.85C1516.13,106.3,1516,106.18,1514.28,106.39Z" transform="translate(0 0)"/>
    <path class="cls-2" d="M1507.25,189.75c-1.8,0-30.92,9.81-31.8,10.68a4.26,4.26,0,0,0-.76,1.66,2.46,2.46,0,0,0,.71,2.2c1.14,1.12,29.56,12.27,31.67,12.35,3,.21,3.36-1.41,3.24-13C1510.19,191.32,1509.82,189.7,1507.25,189.75Z" transform="translate(0 0)"/>
    <path class="cls-2" d="M1370.5,306.31a3.63,3.63,0,0,0-3.32,2.87c-.13.54-2.48,7.18-5.26,14.74s-5,14.28-4.84,14.9a3.56,3.56,0,0,0,.84,1.91c.84.83,22.8,1.77,24.4,1.11,2-.92,1.47-3.95-2.51-14.95-2.22-6-4.7-12.94-5.58-15.39C1372.43,306.47,1372.31,306.27,1370.5,306.31Z" transform="translate(0 0)"/>
    <path class="cls-2" d="M1505.57,310.33,1461,266.57l-17.47-6c-9.57-3.31-18-5.92-18.64-5.88a2.26,2.26,0,0,0-2.27,1.91,32.07,32.07,0,0,0,1.68,6.47c1,3.07,3.48,10.75,5.45,17l3.64,11.42,89.53,88.6h4.12l11.3-11.17c10.55-10.42,11.35-11.3,11.52-13l.21-1.78Z" transform="translate(0 0)"/>
  </g>
  <g>
    <path class="cls-1" d="M1645.44,204.09v163.8h-49V204.09h-17.35v-45h17.35V78.47q0-39.45,13.89-55.75Q1629.41,0,1665.86,0q14.33,0,32.76,7.5V56.81l-5-2.57q-15.84-7.93-26-7.93-13,0-17.57,9.21-4.56,9-4.56,34.74v68.83h53.08v45Z" transform="translate(0 0)"/>
    <path class="cls-1" d="M1793.17,204.09v163.8h-48.81V204.09h-20.79v-45h20.82V82.54h48.81v76.55h38v45Z" transform="translate(0 0)"/>
  </g>
</svg>
