<?xml version="1.0" encoding="utf-8"?>
<!-- Generator: Adobe Illustrator 24.1.2, SVG Export Plug-In . SVG Version: 6.00 Build 0)  -->
<svg version="1.1" id="Слой_1" xmlns="http://www.w3.org/2000/svg" xmlns:xlink="http://www.w3.org/1999/xlink" x="0px" y="0px"
	 viewBox="0 0 2065.7 380.1" style="enable-background:new 0 0 2065.7 380.1;" xml:space="preserve">
<style type="text/css">
	.st0{fill:#C60006;}
	.st1{font-family:'Futura';}
	.st2{font-size:430px;}
</style>
<g>
	<path d="M364,373.9h-63.6l-26.3-26.6c-27.9,17.7-59,26.6-93.3,26.6c-44.4,0-83.8-14.9-118.2-44.6C25.3,296.6,6.5,254.8,6.5,203.9
		c0-49.9,17.7-91.5,53.2-124.8c34.4-32.3,75.1-48.4,121.9-48.4c42.5,0,80.6,14.2,114.3,42.5c40.5,34,60.7,78.4,60.7,133.1
		c0,42.9-16,81-47.9,114.3L364,373.9z M225,236.8l48.6,47.8c21.4-22,32.1-49.2,32.1-81.6c0-35.6-11.9-65.3-35.8-89.3
		c-23.9-24-53.5-36-88.9-36c-35.9,0-65.4,12-88.5,36c-23.3,23.9-34.9,54.1-34.9,90.6c0,35.7,12,64.9,36,87.6
		c25,23.4,53.6,35.1,85.7,35.1c21.8,0,41.6-4.9,59.2-14.8l-78.7-75.4H225z"/>
	<path d="M631.5,72.2c-0.1-8.3,3.3-16.2,9.3-21.9c12.5-12.3,32.5-12.3,44.9,0c6.1,5.7,9.5,13.7,9.3,22.1
		C695,89.9,680.9,104,663.4,104c-8.5,0.1-16.6-3.2-22.6-9.2C634.8,88.9,631.4,80.7,631.5,72.2z M687.7,159.1v208.8h-48.8V159.1
		H687.7z"/>
	<path d="M914,168.1v64.1c-11.1-13.4-21.1-22.7-29.9-27.7c-8.7-5.2-18.9-7.7-30.6-7.7c-18.4,0-33.6,6.4-45.8,19.1
		c-12.2,12.7-18.2,28.7-18.2,47.8c0,19.6,5.9,35.7,17.6,48.2c11.9,12.6,27,18.9,45.3,18.9c11.7,0,22.1-2.5,31-7.5
		c8.7-4.9,18.9-14.3,30.6-28.3v63.7c-19.8,10.2-39.6,15.2-59.4,15.2c-32.7,0-60-10.4-82-31.3c-22-21-33-47.1-33-78.3
		s11.1-57.5,33.4-78.9s49.6-32.2,82-32.2C875.5,153.2,895.8,158.3,914,168.1z"/>
	<path d="M1021.6,5.8v220.8l68.8-67.5h65.5l-91.8,87.7l98.5,121.1h-63.3l-69.9-88.1l-7.8,7.7v80.4h-48.8V5.8H1021.6z"/>
	<path d="M1392.8,86l-41,24c-7.7-12.9-15-21.4-21.9-25.7c-7.2-4.6-16.6-6.9-28-6.9c-14,0-25.6,3.9-34.9,11.8
		c-9.3,7.7-13.9,17.4-13.9,29.2c0,16.2,12.2,29.2,36.4,39.1l33.4,13.5c27.2,10.9,47.1,24.1,59.7,39.8s18.9,34.9,18.9,57.6
		c0,30.5-10.3,55.6-30.8,75.5c-20.7,20-46.3,30-77,30c-29.1,0-53.1-8.5-72-25.6c-18.7-17.1-30.3-41-34.9-71.9l51.2-11.1
		c2.3,19.3,6.4,32.8,12.2,40.3c10.4,14.3,25.6,21.4,45.6,21.4c15.8,0,28.8-5.2,39.3-15.6c10.4-10.4,15.6-23.6,15.6-39.6
		c0.1-6-0.9-12-2.7-17.7c-1.9-5.4-4.7-10.4-8.5-14.8c-4.3-4.9-9.3-9.2-14.9-12.6c-6.9-4.4-14.2-8.1-21.7-11.3l-32.3-13.2
		c-45.8-19.1-68.8-47.1-68.8-84c0-24.8,9.6-45.6,28.8-62.3c19.2-16.8,43.2-25.3,71.8-25.3C1340.9,30.4,1371.1,48.9,1392.8,86z"/>
</g>
<g>
	<path class="st0" d="M1451.2,26.3c-1.4-0.1-2.3,0.7-13.6,11.8c-10.3,10.2-12.1,12.1-12,13.1s9.2,9.9,44.6,44.6l44.4,43.3l16.4,5.3
		c9,2.9,17,5.4,17.9,5.4c0.9,0.1,1.8-0.4,2.3-1.2c0.8-1.3-1.5-8.5-8.8-27.6l-2.4-6.4l-43.7-44.2
		C1455.4,29.2,1452.6,26.4,1451.2,26.3z"/>
	<path class="st0" d="M1691.7,52.7c-22.8-13.4-42.2-20-66.4-22.4c-19.7-2-39.5-1.1-58.9,2.6c-15.2,2.9-29.9,8.2-43.6,15.5
		c-12.3,6.4-17.7,10-17.3,11.6c0.1,0.3,4.4,5,9.5,10.4l9.4,9.8l1.6-0.4c1.7-0.5,3.4-1.3,4.9-2.2c7.2-4,14.7-7.5,22.3-10.5
		c14.1-5.4,24.5-6.9,47.8-7c36.2,0,51.4,3.7,74.1,17.7c3.7,2.3,7,4.1,7.5,4.1c1.2,0,19.1-18.2,19.6-19.8
		C1702.9,59.8,1701.3,58.4,1691.7,52.7z"/>
	<path class="st0" d="M1458.9,106.8c-2.4,3.3-4.6,6.7-6.7,10.2c-5.8,9.2-10.4,19.2-13.8,29.5c-14.1,40.5-11.5,97.9,6,131.7
		c4,7.8,10.3,17.7,12.7,20.1c2.9,2.9,3.4,2.6,14.4-8.3c8.5-8.4,9.5-9.5,9.4-10.8c0-0.7-1.5-3.4-3.2-5.8
		c-9.6-13.5-13.9-26.1-17.6-50.7c-5.3-35.9-1.1-61,15.2-89.8c2.2-3.7,3.9-7.4,3.9-8.2c0-1.1-1.3-2.7-8.1-10
		C1462,105.1,1461.1,104.6,1458.9,106.8z"/>
	<path class="st0" d="M1603.9,64.1c-6.1,0-11.4,0.3-11.8,0.6c-0.4,0.5-0.7,1-0.9,1.6c-0.1,0.5,2.2,8.3,5.2,17.1
		c4.7,13.8,5.7,16.1,6.8,16.5c2.8,0.8,3.3-0.2,8.9-16.9C1619.2,62.5,1619.8,64.1,1603.9,64.1z"/>
	<path class="st0" d="M1468,189.6c-2,0.2-2.1,0.3-2.5,3.4c-0.6,5.4-0.7,21.3-0.1,22.4c0.5,0.8,1.3,1.2,2.2,1.3
		c1.9,0.1,30.5-10.8,31.9-12.2c1.1-0.8,1.3-2.4,0.4-3.5c-0.1-0.1-0.1-0.2-0.2-0.2C1498.4,199.6,1469.8,189.5,1468,189.6z"/>
	<path class="st0" d="M1549.6,254.6c-0.5,0-7.8,2.1-16.2,4.5l-15.2,4.5l-3.5,3.2c-1.9,1.8-22.5,21.9-45.9,44.8l-42.4,41.6v1.9
		c0,1.9,0.1,2,11.3,13c10.4,10.3,11.4,11.2,12.7,11.1s5.3-3.8,47.2-45.2l45.7-45.2l4.2-13.5c5.6-17.9,5.7-18.2,4.2-19.6
		C1551.2,255,1550.4,254.7,1549.6,254.6z"/>
	<path class="st0" d="M1760.8,26.3c-1.2-0.2-3.4,1.9-35.1,32.4c-18.6,18-39.2,38-45.8,44.5l-12,11.8l-5.8,16.3
		c-5.9,16.9-6.5,19.6-4,20.3c0.7,0.2,8.6-2,17.8-4.8l16.5-5.2l46-45.2c42.4-41.8,45.9-45.3,45.8-46.5
		C1784.2,48.3,1762.7,26.6,1760.8,26.3z"/>
	<path class="st0" d="M1680.5,327.5c-1.2,0.8-6.8,3.7-12.5,6.5c-11.6,5.8-25.3,10.8-35.4,12.8c-17.9,3.6-37.8,3-57.1-1.5
		c-15.3-4-30.2-9.5-44.4-16.4c-1.8-1-3.7-1.7-5.6-2.3c-1.8-0.1-19.3,16.7-19.6,18.7c-0.2,1.2,0.2,1.7,2.9,4
		c4.5,3.8,14.2,9.8,22.9,14.1c16.4,8.2,33.5,12,59.1,13.1c41.1,1.8,75.7-6.7,105.9-26c5.6-3.5,6.5-4.7,5.5-6.8
		c-0.3-0.8-4.3-5-8.8-9.4C1684.3,325.1,1684.3,325.2,1680.5,327.5z"/>
	<path class="st0" d="M1748.8,106.4c-1.6,0.2-2.6,0.9-10.5,8.8s-8.7,8.7-8.7,10.1c0.8,2.7,1.9,5.3,3.3,7.8
		c24.7,49.2,25.1,92.3,1.4,138.9c-3.1,6-4.4,9.2-4.1,10.1s3.1,4.3,8.9,10.5l8.6,9l1.8-0.4c1.8-0.4,2-0.5,6.3-9
		c17-33.1,25.2-62.8,25.3-91.5c0.1-22.8-4.3-42-15-65.7c-4-8.8-10.4-21-13.6-25.9C1750.7,106.3,1750.5,106.2,1748.8,106.4z"/>
	<path class="st0" d="M1741.8,189.7c-1.8,0-30.9,9.8-31.8,10.7c-0.4,0.5-0.6,1.1-0.8,1.7c-0.1,0.8,0.1,1.6,0.7,2.2
		c1.1,1.1,29.6,12.3,31.7,12.4c3,0.2,3.4-1.4,3.2-13C1744.7,191.3,1744.4,189.7,1741.8,189.7z"/>
	<path class="st0" d="M1605,306.3c-1.6,0.1-3,1.3-3.3,2.9c-0.1,0.5-2.5,7.2-5.3,14.7s-5,14.3-4.8,14.9c0.1,0.7,0.4,1.4,0.8,1.9
		c0.8,0.8,22.8,1.8,24.4,1.1c2-0.9,1.5-4-2.5-15c-2.2-6-4.7-12.9-5.6-15.4C1607,306.5,1606.8,306.3,1605,306.3z"/>
	<path class="st0" d="M1740.1,310.3l-44.5-43.8l-17.5-6c-9.6-3.3-18-5.9-18.6-5.9c-1.1,0-2.1,0.8-2.3,1.9c0.3,2.2,0.9,4.4,1.7,6.5
		c1,3.1,3.5,10.8,5.4,17l3.6,11.4l89.5,88.6h2.1h2.1l11.3-11.2c10.6-10.4,11.3-11.3,11.5-13l0.2-1.8L1740.1,310.3z"/>
</g>
<g>
	<path d="M1880,204.1v163.8h-49V204.1h-17.3v-45h17.3V78.5c0-26.3,4.6-44.9,13.9-55.8C1857.6,7.6,1876.1,0,1900.4,0
		c9.6,0,20.5,2.5,32.8,7.5v49.3l-5-2.6c-10.6-5.3-19.2-7.9-26-7.9c-8.7,0-14.5,3.1-17.6,9.2c-3,6-4.6,17.6-4.6,34.7v68.8h53.1v45
		H1880z"/>
	<path d="M2027.7,204.1v163.8h-48.8V204.1h-20.8v-45h20.8V82.5h48.8v76.6h38v45H2027.7z"/>
</g>
<text transform="matrix(1 0 0 1 391.3513 362.2202)" class="st1 st2">u</text>
</svg>
